# Blender 5.1.2
# www.blender.org
mtllib Model_Gun.mtl
o Cube.007
v 0.833333 2.816137 -1.009890
v -0.188514 3.808700 0.988318
v -0.598969 2.065457 -3.300285
v 0.833333 4.335869 -1.016355
v -0.196080 3.768731 0.623855
v -0.874849 1.633634 1.274899
v 0.750000 3.006136 -3.118944
v 0.194989 3.808700 0.988318
v -0.442901 3.283548 1.077777
v -0.883176 4.166704 -3.300285
v 0.198489 3.768731 0.623855
v 0.750000 4.146000 -3.159133
v 1.008990 -1.098288 1.481802
v -0.200639 4.188054 0.886259
v -0.200699 4.090322 0.515036
v 0.750000 4.146000 0.400959
v -0.643437 2.065457 -3.507364
v 0.200699 4.090322 0.515036
v 0.200695 4.188054 0.886259
v -0.883176 4.166704 -3.791310
v -0.200699 4.422946 0.450927
v 0.833333 4.335869 -0.165659
v 0.943078 1.633634 1.274899
v 0.833333 2.816137 -2.656390
v 0.200699 4.422946 0.450927
v 0.511130 3.283548 1.077777
v -0.192765 3.869546 1.204659
v 0.833333 4.335869 -2.697668
v 0.197095 3.869546 1.204659
v 0.598969 2.065457 -3.300285
v -0.200678 4.221857 1.068797
v 0.000000 2.816310 -3.050524
v 0.200699 4.221857 1.068797
v 0.883176 4.166704 -3.300285
v 0.000000 4.336475 -3.157694
v -0.200544 4.133212 1.387196
v 0.200665 4.133212 1.387196
v 0.728612 -1.006230 4.596534
v -0.200699 4.397635 1.379787
v 0.000000 2.436269 -0.990494
v 0.200699 4.397635 1.379787
v -0.828004 2.515987 1.274899
v 0.643437 2.065457 -3.507364
v -0.200699 4.336031 1.650862
v 0.000000 4.716516 -1.016355
v 0.200699 4.336031 1.650862
v 0.896233 2.515987 1.274899
v -0.200699 4.444959 1.609649
v 0.200699 4.444959 1.609649
v 0.883176 4.166704 -3.791310
v -0.200699 4.369271 1.869081
v -0.991010 -1.098288 1.481802
v 0.200699 4.369271 1.869081
v -0.200699 4.434067 1.837445
v 0.000000 4.716516 -0.165659
v 0.200699 4.434067 1.837445
v -0.598969 2.290779 -3.300285
v -0.710825 2.290779 -3.648210
v 0.000000 4.716516 -2.706185
v -0.874849 1.633634 0.381299
v 0.000000 2.436269 -2.571075
v 0.468364 4.303711 -3.162332
v 0.710825 2.290779 -3.648210
v 0.804784 3.576025 -3.155751
v -0.792486 3.467593 0.381299
v 0.598969 2.290779 -3.300285
v 0.819059 2.848682 -3.027180
v 0.833333 4.335869 -1.928112
v -0.710632 -1.006230 4.596534
v 0.949291 0.479129 1.493268
v 0.958333 3.575906 -1.015547
v 0.943078 1.633634 0.381299
v 0.479167 2.483752 -0.997767
v 0.725631 3.576025 0.447442
v 0.860715 3.467593 0.381299
v -0.710632 1.743181 3.270818
v 0.833333 4.335869 -0.485568
v 0.728612 1.743181 3.270818
v 0.833333 2.816137 -0.484760
v -0.992389 3.208981 -3.300285
v 0.819059 4.303347 0.170716
v 0.943078 2.515987 0.381299
v -1.000000 3.152642 -3.873865
v 0.958333 3.575906 -0.165659
v -0.874849 2.515987 0.381299
v 1.000000 3.152642 -3.873865
v 0.479167 4.668741 -0.165659
v -0.931312 0.479129 1.493268
v 0.833333 2.816137 -1.908677
v 0.819059 4.303347 -3.066363
v 0.992389 3.208981 -3.300285
v -0.491165 2.975735 1.781515
v 0.479167 4.668741 -2.699314
v 0.468364 2.848798 -3.083343
v -0.883176 4.190178 -4.575356
v 0.479167 4.668741 -1.016355
v 0.883176 4.190178 -4.575356
v 0.468364 4.303711 0.459554
v -0.667618 2.788593 1.239688
v -1.000000 3.232455 -4.488895
v 0.735847 2.788593 1.239688
v 0.479167 2.483752 -2.603562
v 0.000000 2.483774 -2.917701
v 1.000000 3.232455 -4.488895
v 0.000000 4.669012 -3.066584
v 0.724285 1.437397 1.065366
v 0.000000 4.716516 -0.485568
v 0.920288 2.785841 0.381299
v 0.245742 2.065457 -3.507364
v 0.509144 2.975735 1.781515
v 0.000438 3.576392 0.577725
v -0.245742 2.065457 -3.507364
v -0.333333 4.610635 -3.791310
v 0.000000 4.716516 -1.928112
v -0.706305 1.437397 1.065366
v 0.000000 2.436269 -1.850374
v 0.000000 4.669011 0.179881
v -0.852059 2.785841 0.381299
v 0.000000 3.576393 -3.126894
v 0.333333 4.610635 -3.791310
v 0.473765 3.576251 -3.145476
v -0.991010 -1.337309 3.023097
v 0.479167 2.483752 -1.872238
v -0.229362 2.065457 -3.300285
v -0.874849 1.633634 -0.512300
v 0.936106 3.575921 0.175298
v 0.229362 2.065457 -3.300285
v 0.333333 4.610635 -3.300285
v 0.958333 3.575906 -0.485467
v -0.333333 4.610635 -3.300285
v 0.476466 2.529493 -2.959452
v 0.943078 1.633634 -0.512300
v 0.476466 4.623004 -3.066952
v 0.479167 4.668741 -0.485568
v 1.008990 -1.337309 3.023097
v 0.229362 2.290779 -3.300285
v 0.433527 3.576251 0.561357
v 0.479167 4.668741 -1.928112
v -0.229362 2.290779 -3.300285
v 0.476466 4.623004 0.177590
v 0.943078 3.283548 -0.315178
v 0.791088 3.718519 -3.156596
v -0.271570 2.290779 -3.648210
v 1.008990 1.130131 2.365662
v 0.927083 3.765897 -1.015749
v -0.874849 2.515987 -0.512300
v 0.748025 3.718519 0.435822
v 0.271570 2.290779 -3.648210
v 0.927083 3.765897 -0.165659
v -0.991010 1.130131 2.365662
v 0.927083 3.765897 -2.693564
v 0.000147 3.766413 0.551211
v 0.943078 2.515987 -0.512300
v 0.000000 3.766413 -3.134594
v 0.724285 2.100886 1.423995
v 0.472415 3.758116 -3.149690
v -0.874849 2.788593 -0.477089
v 0.927083 3.765897 -1.926290
v -0.706305 2.100886 1.423995
v 0.333333 3.208981 -3.300285
v 0.909047 3.757777 0.174153
v -0.333333 3.208981 -3.300285
v 0.927083 3.765897 -0.485492
v 0.909047 3.757777 -3.062906
v 0.943078 2.788593 -0.477089
v -0.333333 3.152642 -3.873865
v 0.455688 3.758116 0.535907
v 0.008990 -1.098288 1.481802
v 0.793515 3.458799 -3.148180
v 0.932621 3.419622 -1.014383
v 0.008990 -1.006230 4.596534
v 0.701366 3.458799 0.437881
v 0.333333 3.152642 -3.873865
v 0.932621 3.419622 -0.165659
v 0.008990 0.481457 1.492702
v 0.932621 3.419622 -2.686480
v -0.333333 4.634109 -4.575356
v 0.333333 4.634109 -4.575356
v 0.000000 3.420044 -3.111185
v 0.008990 1.743412 3.270851
v 0.472654 3.426614 -3.132695
v -0.333333 3.232455 -4.488895
v 0.008990 1.434158 1.065793
v 0.932621 3.419622 -1.922184
v 0.333333 3.232455 -4.488895
v 0.906630 3.426328 0.174356
v 0.932621 3.419622 -0.485322
v 0.008990 2.975753 1.781518
v 0.914363 3.426328 -3.054642
v -0.333333 4.632213 -6.400729
v 0.424824 3.426614 0.540417
v 0.008990 -1.337309 3.023097
v 0.839847 0.945234 1.285135
v 0.649710 4.202161 -3.160272
v 0.333333 4.632213 -6.400729
v 0.707215 2.697775 -1.005573
v -0.333333 3.230559 -6.314268
v 0.707216 4.454404 -0.165659
v 0.628958 2.478401 2.565802
v -0.821868 0.945234 1.285135
v 0.707215 4.454404 -2.690500
v 0.649710 2.950108 -3.106266
v 0.333333 3.230559 -6.314268
v 0.102474 2.065457 -3.507364
v 0.707215 4.454404 -1.016355
v -0.610978 2.478401 2.565802
v 0.649710 4.202161 0.421825
v -0.852529 1.602309 1.907632
v -0.102474 2.065457 -3.507364
v 0.707215 2.697775 -2.633142
v 0.870508 1.602309 1.907632
v 0.686909 3.576106 -3.152092
v -0.111111 4.610635 -3.791310
v 0.707215 2.697775 -1.895701
v 0.008990 2.478401 2.565802
v 0.111111 4.610635 -3.791310
v 0.697062 2.735020 -3.003062
v 0.008990 0.944854 1.285052
v 0.697062 4.417176 -3.066572
v -0.097358 2.065457 -3.300285
v 0.707216 4.454404 -0.485568
v 0.008990 3.102621 1.136962
v 0.615456 3.576106 0.488007
v 0.097358 2.065457 -3.300285
v 0.707216 4.454404 -1.928112
v -0.361650 3.102613 1.136964
v 0.697062 4.417176 0.173163
v 0.111111 4.610635 -3.300285
v -0.706305 2.186224 1.274899
v 0.641350 3.732619 0.471462
v 0.677609 3.732619 -3.154137
v -0.111111 4.610635 -3.300285
v -0.706305 1.825048 1.274899
v 0.596723 3.447338 0.474394
v 0.679257 3.447338 -3.142666
v 0.097358 2.290779 -3.300285
v -0.706305 1.633634 1.171436
v 0.833333 4.335869 -1.483630
v -0.097358 2.290779 -3.300285
v 0.833333 2.816137 -1.470518
v -0.108702 2.290779 -3.648210
v 0.000000 4.716516 -1.483630
v -0.706305 1.633634 0.877664
v 0.000000 2.436269 -1.431183
v 0.108702 2.290779 -3.648210
v 0.958333 3.575906 -1.481991
v 0.681884 2.329815 1.274899
v 0.479167 2.483752 -1.445933
v 0.724285 2.186224 1.274899
v 0.479167 4.668741 -1.483630
v 0.620656 2.515987 1.274899
v 0.927083 3.765897 -1.482401
v 0.379630 3.102613 1.136964
v 0.932621 3.419622 -1.479631
v 0.494433 2.788593 1.239688
v 0.707215 4.454404 -1.483630
v 0.707215 2.697775 -1.461764
v 0.111111 3.208981 -3.300285
v 0.008990 1.633634 0.876539
v 0.713532 3.708726 -3.050333
v 0.724285 1.633634 0.877664
v 0.727519 3.579041 -3.048868
v -0.111111 3.208981 -3.300285
v 0.796945 3.744494 -2.685392
v -0.726393 1.633634 1.274899
v 0.826448 3.575980 -2.684029
v 0.631904 2.999661 -2.985311
v -0.111111 3.152642 -3.873865
v 0.748897 1.633634 1.274899
v 0.450558 2.898351 -2.962387
v 0.617722 2.794509 -2.622862
v 0.111111 3.152642 -3.873865
v 0.389518 2.580404 -2.592255
v -0.111111 4.634109 -4.575356
v 0.724285 1.825048 1.274899
v 0.826414 3.575908 -1.925682
v 0.724285 1.633634 1.171436
v 0.796913 3.744486 -1.926290
v 0.826414 3.576025 -1.481991
v 0.111111 4.634109 -4.575356
v -0.111111 3.232455 -4.488895
v 0.802451 3.441038 -1.922184
v -0.509101 2.727760 1.247545
v 0.388890 2.579944 -1.872238
v 0.111111 3.232455 -4.488895
v 0.616939 2.793968 -1.895701
v 0.388890 2.579944 -1.445933
v -0.473414 2.788593 1.239688
v -0.111111 4.632213 -6.400729
v 0.400733 2.623452 -2.906169
v -0.615890 2.515987 1.274899
v 0.643516 2.814804 -2.912674
v 0.822016 3.577578 -3.000888
v 0.111111 4.632213 -6.400729
v 0.792776 3.740229 -3.003107
v -0.111111 3.230559 -6.314268
v 0.111111 3.230559 -6.314268
v 0.798461 3.447445 -2.995281
v -0.111111 4.886541 -3.788820
v 0.437138 4.263845 -3.040519
v 0.111111 4.886541 -3.788820
v 0.396513 4.535006 -3.009799
v 0.388972 4.572613 -2.688061
v 0.111111 4.886541 -3.297794
v -0.111111 4.886541 -3.297794
v 0.631398 4.342697 -2.979717
v -0.111111 4.910016 -4.572865
v 0.388820 4.572615 -1.928112
v 0.111111 4.910016 -4.572865
v 0.388820 4.572615 -1.483630
v 0.616869 4.358278 -1.928112
v -0.111111 4.908119 -6.398238
v 0.717308 3.474926 -3.041713
v 0.111111 4.908119 -6.398238
v -0.598969 2.290779 -0.512300
v 0.802504 3.441165 -2.678335
v -0.598969 2.065457 -0.512300
v 0.618484 4.162295 -3.038460
v -0.229362 2.065457 -0.512300
v 0.617029 4.358279 -2.680466
v 0.796913 3.744486 -1.482401
v -0.097358 2.065457 -0.512300
v -0.229362 2.290779 -0.512300
v 0.802451 3.441038 -1.479631
v -0.097358 2.290779 -0.512300
v 0.616869 4.358278 -1.483630
v 0.097358 2.065457 -0.512300
v 0.616939 2.793968 -1.461764
v -0.833333 2.816137 -1.009890
v 0.097358 2.290779 -0.512300
v 0.229362 2.290779 -0.512300
v -0.833333 4.335869 -1.016355
v -0.750000 3.006136 -3.118944
v 0.229362 2.065457 -0.512300
v -0.750000 4.146000 -3.159133
v 0.598969 2.065457 -0.512300
v -0.750000 4.146000 0.400959
v 0.598969 2.290779 -0.512300
v -0.833333 4.335869 -0.165659
v -0.833333 2.816137 -2.656390
v -0.833333 4.335869 -2.697668
v -0.468364 4.303711 -3.162332
v -0.804784 3.576025 -3.155751
v -0.819059 2.848682 -3.027180
v -0.833333 4.335869 -1.928112
v -0.958333 3.575906 -1.015547
v -0.479167 2.483752 -0.997767
v -0.715509 3.576025 0.447442
v -0.833333 4.335869 -0.485568
v -0.833333 2.816137 -0.484760
v -0.819059 4.303347 0.170716
v -0.958333 3.575906 -0.165659
v -0.479167 4.668741 -0.165659
v -0.833333 2.816137 -1.908677
v -0.819059 4.303347 -3.066363
v -0.479167 4.668741 -2.699314
v -0.468364 2.848798 -3.083343
v -0.479167 4.668741 -1.016355
v -0.468364 4.303711 0.459554
v -0.479167 2.483752 -2.603562
v -0.473765 3.576251 -3.145476
v -0.479167 2.483752 -1.872238
v -0.936141 3.575921 0.175298
v -0.958333 3.575906 -0.485467
v -0.476466 2.529493 -2.959452
v -0.476466 4.623004 -3.066952
v -0.479167 4.668741 -0.485568
v -0.417023 3.576251 0.561357
v -0.479167 4.668741 -1.928112
v -0.476466 4.623004 0.177590
v -0.791088 3.718519 -3.156596
v -0.927083 3.765897 -1.015749
v -0.741632 3.718519 0.435822
v -0.927083 3.765897 -0.165659
v -0.927083 3.765897 -2.693564
v -0.472415 3.758116 -3.149690
v -0.927083 3.765897 -1.926290
v -0.909047 3.757777 0.174153
v -0.927083 3.765897 -0.485492
v -0.909047 3.757777 -3.062906
v -0.446862 3.758116 0.535907
v -0.793515 3.458799 -3.148180
v -0.932621 3.419622 -1.014383
v -0.689030 3.458799 0.437881
v -0.932621 3.419622 -0.165659
v -0.932621 3.419622 -2.686480
v -0.472654 3.426614 -3.132695
v -0.932621 3.419622 -1.922184
v -0.906210 3.426328 0.174356
v -0.932621 3.419622 -0.485322
v -0.914363 3.426328 -3.054642
v -0.406024 3.426614 0.540417
v -0.649710 4.202161 -3.160272
v -0.707215 2.697775 -1.005573
v -0.707216 4.454404 -0.165659
v -0.707215 4.454404 -2.690500
v -0.649710 2.950108 -3.106266
v -0.707215 4.454404 -1.016355
v -0.649710 4.202161 0.421825
v -0.707215 2.697775 -2.633142
v -0.686909 3.576106 -3.152092
v -0.707215 2.697775 -1.895701
v -0.697062 2.735020 -3.003062
v -0.697062 4.417176 -3.066572
v -0.707216 4.454404 -0.485568
v -0.600306 3.576106 0.488007
v -0.707216 4.454404 -1.928112
v -0.697062 4.417176 0.173163
v -0.632159 3.732619 0.471462
v -0.677609 3.732619 -3.154137
v -0.579267 3.447338 0.474394
v -0.679257 3.447338 -3.142666
v -0.833333 4.335869 -1.483630
v -0.833333 2.816137 -1.470518
v -0.958333 3.575906 -1.481991
v -0.479167 2.483752 -1.445933
v -0.479167 4.668741 -1.483630
v -0.927083 3.765897 -1.482401
v -0.932621 3.419622 -1.479631
v -0.707215 4.454404 -1.483630
v -0.707215 2.697775 -1.461764
v -0.713532 3.708726 -3.050333
v -0.727519 3.579041 -3.048868
v -0.796945 3.744494 -2.685392
v -0.826448 3.575980 -2.684029
v -0.631904 2.999661 -2.985311
v -0.450558 2.898351 -2.962387
v -0.617722 2.794509 -2.622862
v -0.389518 2.580404 -2.592255
v -0.826414 3.575908 -1.925682
v -0.796913 3.744486 -1.926290
v -0.826414 3.576025 -1.481991
v -0.802451 3.441038 -1.922184
v -0.388890 2.579944 -1.872238
v -0.616939 2.793968 -1.895701
v -0.388890 2.579944 -1.445933
v -0.400733 2.623452 -2.906169
v -0.643516 2.814804 -2.912674
v -0.822016 3.577578 -3.000888
v -0.792776 3.740229 -3.003107
v -0.798461 3.447445 -2.995281
v -0.437138 4.263845 -3.040519
v -0.396513 4.535006 -3.009799
v -0.388972 4.572613 -2.688061
v -0.631398 4.342697 -2.979717
v -0.388820 4.572615 -1.928112
v -0.388820 4.572615 -1.483630
v -0.616869 4.358278 -1.928112
v -0.717308 3.474926 -3.041713
v -0.802504 3.441165 -2.678335
v -0.618484 4.162295 -3.038460
v -0.617029 4.358279 -2.680466
v -0.796913 3.744486 -1.482401
v -0.802451 3.441038 -1.479631
v -0.616869 4.358278 -1.483630
v -0.616939 2.793968 -1.461764
v -0.689714 3.453280 0.435464
v -0.703241 3.456841 0.421988
v -0.743629 3.467593 0.381299
v -0.406283 3.425612 0.540167
v -0.405985 3.425584 0.540272
v -0.248393 3.423780 0.547099
v -0.578772 3.443111 0.473947
v -0.579579 3.443176 0.473701
v -0.687950 3.452771 0.437389
v 0.424792 3.425584 0.540272
v 0.425098 3.425612 0.540167
v 0.257699 3.423780 0.547099
v 0.597057 3.443176 0.473701
v 0.700372 3.452771 0.437389
v 0.701988 3.453280 0.435464
v 0.751796 3.467593 0.381299
v 0.714443 3.456841 0.421988
v 0.596276 3.443111 0.473947
v 0.000541 3.421402 0.556098
v -0.833333 2.816137 -0.468078
v -0.874849 3.068475 -0.385533
v 0.833333 2.816137 -0.468078
v 0.803984 2.788593 -0.477089
v -0.803984 2.788593 -0.477089
v 0.910234 3.283548 -0.315178
v 0.916734 3.323058 -0.165659
v 0.838979 3.438054 0.269514
v 0.904081 3.412885 0.174271
v -0.843780 3.435547 0.260030
v -0.836440 3.438054 0.269514
v -0.513514 2.515987 -0.512300
v -0.479167 2.483752 -0.512300
v 0.000000 2.436269 -0.512300
v 0.513514 2.515987 -0.512300
v 0.479167 2.483752 -0.512300
v -0.865988 3.186833 0.172846
v -0.874849 3.068475 -0.165659
v -0.707215 2.697775 -0.488819
v -0.743860 2.732166 -0.484377
v 0.743860 2.732166 -0.484377
v 0.707215 2.697775 -0.488819
v 0.194496 3.416146 0.575990
v -0.032005 3.416146 0.575990
v -0.163699 3.315400 0.957240
v 0.180816 3.315400 0.957240
v -0.187573 3.416146 0.575990
v 0.200699 4.104720 0.497001
v 0.200699 4.322436 0.466476
v 0.000000 4.098428 0.504882
v 0.000000 4.436241 0.384126
v 0.200699 4.440560 0.362423
v -0.200699 4.104720 0.497001
v -0.200699 4.322436 0.466476
v -0.200699 4.440560 0.362423
vn -0.0000 0.9812 0.1931
vn -0.0000 0.9213 0.3889
vn -0.0000 0.9288 0.3707
vn -0.9830 0.1759 -0.0530
vn -0.9785 0.2027 -0.0371
vn -0.9814 0.1021 -0.1628
vn -0.9886 0.0799 -0.1273
vn -1.0000 -0.0000 -0.0000
vn -0.9893 0.0775 -0.1235
vn -0.0000 -0.9996 0.0268
vn -0.0000 -0.9999 0.0162
vn -0.0000 -0.9786 0.2059
vn 0.9512 0.3018 -0.0642
vn 0.9598 0.2787 -0.0344
vn 0.9829 0.1758 -0.0548
vn 0.9784 0.2023 -0.0430
vn 0.0013 -0.5484 -0.8362
vn -0.0000 -0.5567 -0.8307
vn -0.0000 -0.6897 -0.7241
vn 0.0019 -0.6897 -0.7241
vn -0.0000 0.0071 -1.0000
vn -0.0000 -0.2056 -0.9786
vn 0.0001 -0.1871 -0.9823
vn 0.0003 0.0071 -1.0000
vn 0.9936 0.0476 0.1025
vn 0.9912 0.1277 0.0338
vn 0.9766 0.1681 0.1341
vn 0.9784 0.0735 0.1933
vn -0.9936 0.0476 0.1025
vn -0.9912 0.1277 0.0338
vn -0.9948 0.0576 -0.0837
vn -0.9996 0.0105 -0.0265
vn -0.0000 0.4343 0.9008
vn -0.0000 0.5703 0.8214
vn -0.0001 0.5661 0.8243
vn -0.0001 0.4343 0.9008
vn -0.0000 -0.4083 -0.9128
vn 0.0003 -0.4083 -0.9128
vn 0.9783 0.1939 -0.0727
vn 0.9657 0.2574 0.0333
vn -0.9738 0.1209 -0.1927
vn -0.9749 0.1285 -0.1821
vn -0.9783 0.1940 -0.0729
vn -0.0000 0.7740 0.6332
vn -0.0001 0.7684 0.6400
vn -0.9657 0.2574 0.0333
vn -0.9599 0.2789 -0.0298
vn 0.9740 0.1205 -0.1919
vn 0.9815 0.1017 -0.1620
vn 0.9749 0.1283 -0.1817
vn 0.9894 0.0772 -0.1230
vn 0.9888 0.0795 -0.1266
vn -0.9784 0.0735 0.1933
vn -0.9766 0.1681 0.1341
vn 0.9996 0.0105 -0.0265
vn 0.9948 0.0576 -0.0837
vn 1.0000 -0.0000 -0.0000
vn -0.0000 -0.9882 -0.1532
vn -0.9516 0.3022 -0.0553
vn 0.0001 0.7684 0.6400
vn -0.0003 -0.4083 -0.9128
vn -0.0013 -0.5484 -0.8362
vn 0.0001 0.4343 0.9008
vn 0.0001 0.5661 0.8243
vn -0.0003 0.0071 -1.0000
vn -0.0001 -0.1871 -0.9823
vn -0.0019 -0.6897 -0.7241
vn 0.9757 0.1712 0.1365
vn 0.9649 0.1591 0.2090
vn 0.9021 0.2648 0.3407
vn 0.9271 0.2987 0.2263
vn -0.0000 0.3109 0.9504
vn -0.0000 0.2435 0.9699
vn -0.0000 0.1941 0.9810
vn -0.0000 0.2470 0.9690
vn -0.0000 -1.0000 -0.0000
vn -0.0000 0.9668 0.2555
vn -0.0000 0.9931 0.1171
vn -0.0000 0.9974 -0.0719
vn -0.0000 0.9986 -0.0532
vn -0.0000 0.9937 0.1118
vn -0.0000 -0.0000 1.0000
vn -0.0000 0.0782 0.9969
vn -0.0000 0.0502 0.9987
vn -0.0000 0.0789 0.9969
vn 0.9998 0.0133 0.0131
vn 0.9942 0.0989 0.0410
vn 0.9820 0.1739 0.0744
vn 0.9993 0.0265 0.0262
vn -0.9993 0.0265 0.0262
vn -0.9820 0.1739 0.0744
vn -0.9942 0.0989 0.0410
vn -0.9998 0.0133 0.0131
vn -0.9271 0.2987 0.2263
vn -0.9021 0.2648 0.3407
vn -0.9648 0.1394 0.2229
vn -0.9765 0.1610 0.1435
vn -0.0000 0.1281 0.9918
vn 0.9986 0.0415 0.0341
vn 0.9972 0.0419 0.0626
vn -0.0000 0.3109 -0.9504
vn -0.0000 0.1737 -0.9848
vn -0.0000 0.2205 -0.9754
vn -0.0000 0.9668 -0.2555
vn -0.0000 -0.0000 -1.0000
vn -0.0000 0.0309 -0.9995
vn -0.0000 0.0642 -0.9979
vn 0.9998 0.0197 0.0063
vn -0.9998 0.0197 0.0063
vn -0.9947 -0.0813 0.0630
vn -0.9957 -0.0809 0.0451
vn -0.9987 0.0241 0.0458
vn -0.9960 0.0011 0.0898
vn -0.9935 -0.0747 0.0861
vn -0.0000 0.1281 -0.9918
vn -0.9924 -0.1023 0.0691
vn -0.9935 0.1138 0.0011
vn -0.9933 0.1157 0.0047
vn -0.9981 -0.0337 0.0509
vn -0.9930 0.1177 0.0087
vn 0.9981 -0.0337 0.0509
vn 0.9933 0.1157 0.0047
vn 0.9935 0.1138 0.0011
vn 0.9924 -0.1023 0.0691
vn -0.6281 0.7780 0.0117
vn -0.6281 0.7780 0.0116
vn -0.6282 0.7781 -0.0000
vn -0.9817 -0.1295 0.1396
vn -0.9902 -0.0298 0.1367
vn 0.9609 -0.0591 0.2706
vn 0.9508 -0.2469 0.1871
vn 0.9817 -0.1295 0.1396
vn 0.9902 -0.0298 0.1367
vn -0.0000 -0.5301 -0.8480
vn -0.0000 -0.3962 -0.9182
vn -0.0000 -0.3715 -0.9284
vn -0.9508 -0.2469 0.1871
vn -0.9609 -0.0591 0.2706
vn -0.0000 1.0000 -0.0000
vn -0.0000 -0.2533 -0.9674
vn -0.0272 -0.0744 -0.9969
vn 0.6281 0.7780 0.0117
vn 0.6281 0.7780 0.0116
vn 0.6280 0.7778 0.0233
vn -0.0000 -0.9917 -0.1287
vn -0.0000 -0.9963 -0.0856
vn 0.9930 0.1177 0.0087
vn -0.0000 -0.9980 -0.0640
vn -0.6280 0.7778 0.0233
vn -0.0000 0.9999 0.0150
vn -0.0000 0.9999 0.0144
vn 0.0272 -0.0744 -0.9969
vn 0.6282 0.7781 -0.0000
vn -0.0000 -0.0030 1.0000
vn -0.0000 -0.0616 -0.9981
vn -0.0000 -0.0381 -0.9993
vn -0.0000 -1.0000 0.0010
vn -0.0000 1.0000 -0.0010
vn -0.0000 -0.0090 1.0000
vn -0.0000 0.0090 -1.0000
vn -0.0000 -0.0925 -0.9957
vn -0.0000 -0.0624 -0.9980
vn -0.0351 -0.0556 -0.9978
vn -0.0480 -0.0852 -0.9952
vn -0.0000 -0.0321 -0.9995
vn -0.0000 0.1297 -0.9915
vn -0.0054 0.0829 -0.9965
vn -0.0243 -0.0256 -0.9994
vn -0.0191 -0.0151 -0.9997
vn 0.0987 0.1256 -0.9872
vn 0.3488 0.1249 -0.9288
vn -0.0196 -0.0112 -0.9997
vn -0.0491 -0.0714 -0.9962
vn -0.0316 -0.0437 -0.9985
vn -0.0317 -0.0389 -0.9987
vn -0.0485 -0.0651 -0.9967
vn -0.7415 0.6703 -0.0286
vn -0.8755 0.4426 -0.1937
vn -0.8579 0.4853 -0.1691
vn -0.7407 0.6713 -0.0267
vn 0.9864 0.1622 -0.0260
vn 0.9864 0.1622 -0.0255
vn 0.9867 0.1623 -0.0000
vn 0.9867 -0.1623 -0.0000
vn 1.0000 0.0009 -0.0000
vn -0.0000 -0.9980 -0.0630
vn 0.0923 -0.9934 -0.0688
vn 0.0986 -0.9951 -0.0000
vn 0.6790 -0.7330 -0.0411
vn 0.6776 -0.7337 -0.0501
vn 0.6843 -0.7292 -0.0000
vn 0.9853 -0.1668 0.0377
vn 0.9994 -0.0057 0.0332
vn 0.9977 -0.0116 0.0666
vn 0.9824 -0.1711 0.0752
vn 0.9866 0.1605 0.0293
vn 0.9863 0.1624 0.0276
vn 0.9667 0.1405 0.2137
vn 0.9488 0.1165 0.2935
vn 0.8859 0.0980 0.4535
vn 0.8499 0.0616 0.5233
vn 0.7764 -0.1604 0.6095
vn 0.7771 -0.1602 0.6086
vn 0.7863 -0.1575 0.5974
vn 0.8021 -0.0624 0.5939
vn 0.8003 -0.0704 0.5954
vn 0.5696 -0.1637 0.8055
vn 0.7739 -0.1634 0.6118
vn -0.0000 -0.2393 -0.9709
vn -0.0519 -0.1886 -0.9807
vn -0.0430 -0.3666 -0.9294
vn -0.0000 -0.3669 -0.9303
vn 0.0254 -0.2057 -0.9783
vn 0.0289 -0.2080 -0.9777
vn 0.1689 -0.4151 -0.8940
vn 0.6708 -0.7360 -0.0915
vn -0.0000 -0.9913 -0.1319
vn 0.0861 -0.9876 -0.1314
vn 0.2045 -0.9762 0.0724
vn 0.1609 -0.9870 0.0065
vn 0.1610 -0.9869 0.0061
vn 0.2062 -0.9757 0.0747
vn 0.6579 0.0840 -0.7484
vn 0.3975 0.2872 -0.8715
vn 0.9854 0.1620 -0.0521
vn 0.9010 0.0667 0.4287
vn 0.1623 -0.9867 -0.0000
vn -0.0000 0.2749 -0.9615
vn 0.0178 0.2748 -0.9613
vn 0.0977 0.9871 -0.1268
vn -0.0000 0.9919 -0.1274
vn -0.0000 0.9979 -0.0641
vn 0.0987 0.9931 -0.0630
vn 0.6849 0.7287 -0.0000
vn 0.0992 0.9951 -0.0000
vn -0.0000 0.9977 0.0671
vn 0.0984 0.9929 0.0672
vn 0.6837 0.7281 0.0492
vn 0.6836 0.7281 0.0503
vn 0.3551 -0.1406 0.9242
vn 0.3516 -0.0486 0.9349
vn 0.1980 -0.0201 0.9800
vn 0.2063 -0.1424 0.9681
vn 0.3197 0.0740 0.9446
vn 0.2977 0.1025 0.9491
vn 0.1464 0.1280 0.9809
vn 0.1886 0.1134 0.9755
vn -0.0002 0.1377 0.9905
vn -0.0004 0.1368 0.9906
vn 0.0356 0.1378 0.9898
vn -0.0007 -0.1375 0.9905
vn 0.0378 -0.1374 0.9898
vn -0.0006 -0.0008 1.0000
vn 0.6806 0.7257 0.1011
vn 0.6806 0.7257 0.1003
vn -0.0000 0.9909 0.1345
vn 0.0971 0.9862 0.1339
vn 0.3126 0.6332 0.7080
vn 0.2483 0.6441 0.7236
vn -0.0000 0.6602 0.7511
vn 0.0664 0.6588 0.7494
vn 0.5160 0.5895 0.6215
vn 0.5180 0.5927 0.6168
vn 0.8095 -0.0396 0.5858
vn 0.8087 0.0239 0.5877
vn 0.8087 0.0234 0.5877
vn -0.7652 -0.6428 -0.0368
vn -0.7304 -0.6830 -0.0003
vn -0.7629 -0.6457 -0.0342
vn 0.2081 0.9774 0.0380
vn 0.2429 0.9679 0.0640
vn 0.2100 0.9769 0.0394
vn 0.7473 -0.6590 0.0849
vn 0.7391 -0.6722 0.0436
vn 0.7386 -0.6729 0.0412
vn 0.2030 -0.1395 0.9692
vn 0.3694 -0.1347 0.9195
vn 0.3558 -0.1327 0.9251
vn 0.9849 -0.1648 -0.0521
vn 0.9861 -0.1637 -0.0270
vn 0.9862 -0.1636 -0.0245
vn 0.6250 -0.1266 -0.7703
vn 0.9860 -0.1635 0.0333
vn 0.5317 -0.1624 0.8312
vn 0.7493 -0.1931 0.6335
vn 0.7961 -0.1546 0.5850
vn 0.9831 -0.1648 0.0793
vn 0.3393 -0.1303 0.9316
vn 0.3382 -0.0466 0.9399
vn 0.3120 0.0603 0.9482
vn 0.5254 0.6051 0.5982
vn 0.6836 0.7281 0.0504
vn 0.6807 0.7258 0.0996
vn 0.6827 0.7292 -0.0469
vn 0.6829 0.7292 -0.0434
vn 0.2896 0.0865 0.9532
vn 0.6794 0.7282 -0.0905
vn 0.2796 0.3586 -0.8906
vn -0.7288 0.6847 -0.0000
vn 0.8047 0.0868 0.5873
vn 0.1687 0.9856 0.0067
vn 0.1684 0.9857 0.0063
vn 0.7292 0.6843 -0.0000
vn 0.7302 0.6833 0.0003
vn 0.0002 -0.0023 -1.0000
vn -0.0006 -0.0091 -1.0000
vn 0.7288 -0.6847 -0.0000
vn 0.7287 -0.6849 -0.0000
vn 0.9844 -0.1760 -0.0074
vn 1.0000 -0.0016 -0.0075
vn 1.0000 -0.0013 -0.0000
vn 0.9846 -0.1749 -0.0000
vn 0.4558 -0.1138 -0.8828
vn 0.4658 -0.0258 -0.8845
vn 0.4654 -0.0292 -0.8846
vn 0.9841 -0.1771 -0.0154
vn 0.9999 0.0024 -0.0149
vn 0.2167 0.2025 -0.9550
vn 0.6613 0.7490 -0.0408
vn 0.6735 0.7389 -0.0200
vn 0.6732 0.7392 -0.0205
vn 0.6849 0.7287 0.0001
vn 0.9846 0.1745 -0.0141
vn 0.9848 0.1735 -0.0070
vn 0.4719 0.0587 -0.8797
vn 0.9850 0.1724 -0.0000
vn 0.6501 -0.7588 -0.0398
vn 0.6659 -0.7458 -0.0217
vn 0.6693 -0.7428 -0.0177
vn 0.1253 -0.2774 -0.9526
vn 0.6843 -0.7292 0.0001
vn 1.0000 -0.0023 -0.0000
vn 0.1623 0.9867 -0.0000
vn 0.1626 0.9867 -0.0000
vn 0.7509 0.6586 0.0484
vn 0.7675 0.6341 0.0938
vn 0.7500 0.6599 0.0459
vn 0.2492 -0.9593 0.1329
vn -0.9230 0.2526 -0.2902
vn -0.7287 0.6849 -0.0000
vn 0.4860 -0.7813 0.3916
vn -0.9086 -0.3932 -0.1409
vn -0.8885 -0.4412 -0.1265
vn -0.7292 -0.6843 -0.0000
vn -0.9568 -0.2231 -0.1865
vn -0.0369 -0.0346 -0.9987
vn 0.4487 0.8090 0.3798
vn -0.0013 -0.0160 -0.9999
vn 0.8661 -0.0583 0.4964
vn 0.0480 -0.0852 -0.9952
vn 0.0351 -0.0556 -0.9978
vn 0.0243 -0.0256 -0.9994
vn 0.0054 0.0829 -0.9965
vn 0.0191 -0.0151 -0.9997
vn 0.0196 -0.0112 -0.9997
vn -0.3488 0.1249 -0.9288
vn -0.0987 0.1256 -0.9872
vn 0.0491 -0.0714 -0.9962
vn 0.0485 -0.0651 -0.9967
vn 0.0317 -0.0389 -0.9987
vn 0.0316 -0.0437 -0.9985
vn 0.7415 0.6703 -0.0286
vn 0.7407 0.6713 -0.0267
vn 0.8579 0.4853 -0.1691
vn 0.8755 0.4426 -0.1937
vn -0.9864 0.1622 -0.0260
vn -0.9867 0.1623 -0.0000
vn -0.9864 0.1622 -0.0255
vn -0.9867 -0.1623 -0.0000
vn -1.0000 0.0009 -0.0000
vn -0.0986 -0.9951 -0.0000
vn -0.0923 -0.9934 -0.0688
vn -0.6790 -0.7330 -0.0411
vn -0.6843 -0.7292 -0.0000
vn -0.6776 -0.7337 -0.0501
vn -0.9852 -0.1668 0.0383
vn -0.9823 -0.1711 0.0765
vn -0.9977 -0.0122 0.0669
vn -0.9994 -0.0060 0.0333
vn -0.9866 0.1606 0.0292
vn -0.9471 0.1130 0.3003
vn -0.9663 0.1384 0.2169
vn -0.9863 0.1624 0.0276
vn -0.8421 0.0540 0.5366
vn -0.8825 0.0922 0.4611
vn -0.7615 -0.1585 0.6284
vn -0.7581 -0.1624 0.6317
vn -0.5497 -0.1669 0.8185
vn -0.7864 -0.0744 0.6132
vn -0.7886 -0.0658 0.6114
vn -0.7779 -0.1467 0.6110
vn -0.7627 -0.1577 0.6272
vn 0.0430 -0.3666 -0.9294
vn 0.0519 -0.1886 -0.9807
vn -0.0254 -0.2057 -0.9783
vn -0.1689 -0.4151 -0.8940
vn -0.0289 -0.2080 -0.9777
vn -0.6708 -0.7360 -0.0915
vn -0.0861 -0.9876 -0.1314
vn -0.2045 -0.9762 0.0724
vn -0.2062 -0.9757 0.0747
vn -0.1610 -0.9869 0.0061
vn -0.1609 -0.9870 0.0065
vn -0.6579 0.0840 -0.7484
vn -0.3975 0.2872 -0.8715
vn -0.9854 0.1620 -0.0521
vn -0.9010 0.0667 0.4287
vn -0.1623 -0.9867 -0.0000
vn -0.0178 0.2748 -0.9613
vn -0.0977 0.9871 -0.1268
vn -0.0987 0.9931 -0.0630
vn -0.6849 0.7287 -0.0000
vn -0.0992 0.9951 -0.0000
vn -0.0984 0.9929 0.0672
vn -0.6836 0.7281 0.0503
vn -0.6837 0.7281 0.0492
vn -0.3471 -0.1450 0.9266
vn -0.2057 -0.1449 0.9678
vn -0.1964 -0.0245 0.9802
vn -0.3446 -0.0566 0.9370
vn -0.3149 0.0659 0.9468
vn -0.1896 0.1077 0.9759
vn -0.1476 0.1255 0.9810
vn -0.2951 0.0973 0.9505
vn -0.0360 0.1374 0.9899
vn -0.0393 -0.1374 0.9897
vn -0.6806 0.7257 0.1003
vn -0.6806 0.7257 0.1011
vn -0.0971 0.9862 0.1339
vn -0.2483 0.6441 0.7236
vn -0.3126 0.6332 0.7080
vn -0.0664 0.6588 0.7494
vn -0.5160 0.5895 0.6215
vn -0.5180 0.5927 0.6168
vn -0.8095 -0.0396 0.5858
vn -0.8087 0.0234 0.5877
vn -0.8087 0.0239 0.5877
vn 0.7652 -0.6428 -0.0368
vn 0.7629 -0.6457 -0.0342
vn 0.7304 -0.6830 -0.0003
vn -0.2081 0.9774 0.0380
vn -0.2100 0.9769 0.0394
vn -0.2429 0.9679 0.0640
vn -0.7473 -0.6590 0.0849
vn -0.7386 -0.6729 0.0412
vn -0.7391 -0.6722 0.0436
vn -0.2023 -0.1418 0.9690
vn -0.3671 -0.1390 0.9197
vn -0.3484 -0.1365 0.9273
vn -0.9849 -0.1648 -0.0521
vn -0.9862 -0.1636 -0.0245
vn -0.9861 -0.1637 -0.0270
vn -0.6250 -0.1266 -0.7703
vn -0.7212 -0.2009 0.6629
vn -0.5080 -0.1669 0.8450
vn -0.7939 -0.1348 0.5930
vn -0.3253 -0.1334 0.9362
vn -0.3259 -0.0518 0.9440
vn -0.3038 0.0542 0.9512
vn -0.5254 0.6051 0.5982
vn -0.6836 0.7281 0.0504
vn -0.6807 0.7258 0.0996
vn -0.6827 0.7292 -0.0469
vn -0.6829 0.7292 -0.0434
vn -0.2847 0.0817 0.9551
vn -0.6794 0.7282 -0.0905
vn -0.2796 0.3586 -0.8906
vn 0.7288 0.6847 -0.0000
vn -0.8047 0.0868 0.5873
vn -0.1687 0.9856 0.0067
vn -0.1684 0.9857 0.0063
vn -0.7292 0.6843 -0.0000
vn -0.7302 0.6833 0.0003
vn -0.0002 -0.0023 -1.0000
vn 0.0006 -0.0091 -1.0000
vn -0.7288 -0.6847 -0.0000
vn -0.7287 -0.6849 -0.0000
vn -0.9844 -0.1760 -0.0074
vn -0.9846 -0.1749 -0.0000
vn -1.0000 -0.0013 -0.0000
vn -1.0000 -0.0016 -0.0075
vn -0.4558 -0.1138 -0.8828
vn -0.4654 -0.0292 -0.8846
vn -0.4658 -0.0258 -0.8845
vn -0.9841 -0.1771 -0.0154
vn -0.9999 0.0024 -0.0149
vn -0.2167 0.2025 -0.9550
vn -0.6613 0.7490 -0.0408
vn -0.6732 0.7392 -0.0205
vn -0.6735 0.7389 -0.0200
vn -0.6849 0.7287 0.0001
vn -0.9848 0.1735 -0.0070
vn -0.9846 0.1745 -0.0141
vn -0.4719 0.0587 -0.8797
vn -0.9850 0.1724 -0.0000
vn -0.6501 -0.7588 -0.0398
vn -0.6693 -0.7428 -0.0177
vn -0.6659 -0.7458 -0.0217
vn -0.1253 -0.2774 -0.9526
vn -0.6843 -0.7292 0.0001
vn -1.0000 -0.0023 -0.0000
vn -0.1623 0.9867 -0.0000
vn -0.1626 0.9867 -0.0000
vn -0.7509 0.6586 0.0484
vn -0.7500 0.6599 0.0459
vn -0.7675 0.6341 0.0938
vn -0.2492 -0.9593 0.1329
vn 0.9230 0.2526 -0.2902
vn 0.7287 0.6849 -0.0000
vn -0.4860 -0.7813 0.3916
vn 0.9086 -0.3932 -0.1409
vn 0.8885 -0.4412 -0.1265
vn 0.7292 -0.6843 -0.0000
vn 0.9568 -0.2231 -0.1865
vn 0.0369 -0.0346 -0.9987
vn -0.4487 0.8090 0.3798
vn 0.0013 -0.0160 -0.9999
vn -0.8661 -0.0583 0.4964
vn -0.9994 -0.0303 0.0155
vn -0.9992 -0.0314 0.0264
vn -0.9983 -0.0429 0.0386
vn -0.0000 0.1345 -0.9909
vn -0.0000 -0.0983 -0.9952
vn -0.0000 -0.0969 -0.9953
vn 0.9995 -0.0234 0.0211
vn 0.9998 -0.0164 0.0139
vn 0.9999 -0.0153 0.0081
vn -0.0000 -0.0629 0.9980
vn 1.0000 -0.0038 0.0026
vn 1.0000 -0.0091 0.0019
vn -1.0000 -0.0079 0.0058
vn -0.9998 -0.0193 0.0043
vn -1.0000 -0.0000 0.0001
vn 0.9999 -0.0099 -0.0019
vn 0.9999 -0.0106 -0.0019
vn -0.0000 -0.3205 -0.9472
vn -0.0000 0.9808 0.1952
vn -0.0000 0.9409 0.3388
vn -0.0000 0.8801 0.4749
vn -0.0000 -0.7815 -0.6239
vn 1.0000 -0.0025 -0.0006
vn 1.0000 -0.0046 -0.0012
vn -0.0000 0.9833 -0.1821
vn -0.0000 0.9398 -0.3418
vn -0.0000 -0.9627 0.2707
vn -0.9997 -0.0228 -0.0037
vn -0.9998 -0.0214 -0.0037
vn -1.0000 -0.0056 -0.0014
vn -0.9999 -0.0102 -0.0025
vn -1.0000 -0.0002 -0.0000
vn -1.0000 -0.0003 -0.0001
vn -0.0000 -0.5692 0.8222
vn -0.0000 -0.6896 0.7242
vn -0.0000 -0.6901 0.7238
vn -0.0000 0.9363 -0.3511
vn -0.0000 0.9970 -0.0776
vn -0.0000 0.9989 0.0478
vn 1.0000 -0.0001 -0.0000
vn -0.0000 -0.9197 0.3926
vn -0.0000 -0.9197 0.3925
vn -0.0000 0.4387 0.8986
vn -0.0000 -0.9886 0.1506
vt 0.518096 0.840357
vt 0.527692 0.888391
vt 0.490632 0.888392
vt 0.490632 0.840357
vt 0.180691 0.077524
vt 0.190137 0.068994
vt 0.195818 0.095137
vt 0.206315 0.107360
vt 0.227573 0.102723
vt 0.217077 0.119890
vt 0.074098 0.469383
vt -0.000000 0.469383
vt 0.020776 0.352512
vt 0.074098 0.352512
vt 0.272843 0.024361
vt 0.270941 0.000000
vt 0.314763 0.019146
vt 0.274204 0.077083
vt 0.264743 0.068602
vt 0.267205 0.058187
vt 0.270434 0.044683
vt 0.719991 0.596848
vt 0.666988 0.597090
vt 0.666988 0.581069
vt 0.719991 0.581076
vt 0.666988 0.786793
vt 0.666988 0.670319
vt 0.736663 0.670495
vt 0.741087 0.786793
vt 0.335244 0.350961
vt 0.325597 0.161995
vt 0.402098 0.131457
vt 0.455694 0.351154
vt 0.119801 0.352036
vt 0.128566 0.163056
vt 0.201777 0.196324
vt 0.227573 0.310407
vt 0.769710 0.581043
vt 0.769710 0.375854
vt 0.823033 0.375897
vt 0.823033 0.581069
vt 0.666988 0.634700
vt 0.728554 0.634673
vt 0.300600 0.120694
vt 0.363056 0.067293
vt 0.198881 0.109021
vt 0.209219 0.159146
vt 0.153920 0.121453
vt 0.490632 0.947646
vt 0.536570 0.947646
vt 0.091879 0.068087
vt 0.140494 0.019540
vt 0.256118 0.108657
vt 0.259204 0.094779
vt 0.245743 0.158725
vt 0.238122 0.119649
vt 0.248794 0.107059
vt 0.000000 0.352512
vt 0.052688 0.132573
vt 0.227573 0.309896
vt 0.252960 0.195732
vt 0.227573 0.102534
vt 0.074098 0.583373
vt 0.000000 0.583373
vt 0.184713 0.044997
vt 0.184800 0.000000
vt 0.182599 0.024509
vt 0.183081 0.029086
vt 0.148197 0.583373
vt 0.148197 0.469383
vt 0.444693 0.947646
vt 0.453571 0.888391
vt 0.605423 0.634673
vt 0.613986 0.596848
vt 0.716387 0.581017
vt 0.716387 0.375845
vt 0.592890 0.786793
vt 0.597314 0.670495
vt 0.613986 0.581076
vt 0.127421 0.352512
vt 0.463168 0.840357
vt 0.723745 0.320595
vt 0.769683 0.320618
vt 0.815622 0.320640
vt 0.807192 0.821245
vt 0.807467 0.770652
vt 0.861008 0.783785
vt 0.871688 0.820776
vt 0.606361 0.879757
vt 0.629740 0.888256
vt 0.629740 0.906145
vt 0.592890 0.889505
vt 0.592890 0.818813
vt 0.629741 0.802150
vt 0.629741 0.816540
vt 0.606361 0.824829
vt 0.606360 0.852293
vt 0.124754 0.897908
vt 0.132419 0.899396
vt 0.132419 0.910397
vt 0.066210 0.910397
vt 0.066210 0.775691
vt 0.132419 0.775691
vt 0.132419 0.790080
vt 0.124754 0.791903
vt 0.102987 0.791903
vt 0.102904 0.844906
vt 0.102987 0.897908
vt 0.173668 0.809741
vt 0.173569 0.809900
vt 0.173356 0.818019
vt 0.173356 0.818079
vt 0.172574 0.831671
vt 0.172573 0.831695
vt 0.175915 0.843627
vt 0.181166 0.861957
vt 0.180499 0.864710
vt 0.175311 0.848748
vt 0.148546 0.858513
vt 0.156437 0.882791
vt 0.184062 0.875672
vt 0.187507 0.879291
vt 0.191602 0.890239
vt 0.191616 0.890258
vt 0.200270 0.900885
vt 0.200306 0.900936
vt 0.205367 0.907734
vt 0.205544 0.907814
vt 0.206811 0.908456
vt 0.210626 0.910363
vt 0.211745 0.913806
vt 0.154271 0.905249
vt 0.132419 0.838019
vt 0.173880 0.797306
vt 0.176374 0.804981
vt 0.174340 0.808553
vt 0.674409 0.799281
vt 0.649977 0.805981
vt 0.649977 0.790263
vt 0.715351 0.786793
vt 0.715351 0.797794
vt 0.701169 0.799282
vt 0.701169 0.905286
vt 0.715351 0.907110
vt 0.715351 0.921499
vt 0.649977 0.918027
vt 0.649977 0.897607
vt 0.663770 0.902144
vt 0.674409 0.905286
vt 0.807189 0.906639
vt 0.807088 0.841270
vt 0.873367 0.841202
vt 0.873190 0.906639
vt 0.655937 0.321562
vt 0.590488 0.321615
vt 0.590579 0.255326
vt 0.655937 0.255378
vt 0.569985 0.319355
vt 0.532887 0.307844
vt 0.519931 0.255456
vt 0.570545 0.255362
vt 0.634256 0.813895
vt 0.743656 0.821074
vt 0.755558 0.784406
vt 0.856464 0.452225
vt 0.858434 0.450050
vt 0.858434 0.455301
vt 0.838416 0.455301
vt 0.823033 0.323029
vt 0.823033 0.320596
vt 0.858434 0.320596
vt 0.858434 0.330902
vt 0.856464 0.328727
vt -0.000000 0.910397
vt 0.000000 0.775691
vt 0.221390 0.914668
vt 0.220559 0.914366
vt 0.182185 0.796300
vt 0.220638 0.775691
vt 0.221390 0.778006
vt 0.210798 0.780942
vt 0.187346 0.789550
vt 0.880681 0.354971
vt 0.878303 0.352426
vt 0.878303 0.320596
vt 0.894918 0.346093
vt 0.894918 0.373481
vt 0.894918 0.383262
vt 0.894918 0.397690
vt 0.894918 0.407471
vt 0.894918 0.434859
vt 0.878303 0.455301
vt 0.878303 0.428527
vt 0.880681 0.425982
vt 0.884185 0.390476
vt 0.911542 0.346093
vt 0.943401 0.320596
vt 0.943401 0.455301
vt 0.911542 0.434859
vt 0.911542 0.407471
vt 0.911542 0.397690
vt 0.911542 0.383262
vt 0.911542 0.373481
vt 0.741189 0.906639
vt 0.741087 0.841270
vt 0.655937 0.189195
vt 0.590579 0.189143
vt 0.549654 0.214783
vt 0.549654 0.198499
vt 0.570386 0.191734
vt 0.522404 0.246360
vt 0.540870 0.239867
vt 0.862546 0.445595
vt 0.865053 0.442880
vt 0.865053 0.338073
vt 0.862547 0.335357
vt 0.514970 0.440473
vt 0.455694 0.401116
vt 0.475891 0.370873
vt 0.542054 0.407460
vt 0.506696 0.321615
vt 0.562438 0.366292
vt 0.277898 0.436518
vt 0.344247 0.400302
vt 0.364366 0.430477
vt 0.304903 0.469477
vt 0.098234 0.707661
vt 0.098235 0.603813
vt 0.138977 0.636704
vt 0.147069 0.707661
vt 0.797994 0.221914
vt 0.768526 0.221914
vt 0.771821 0.206571
vt 0.799208 0.206571
vt 0.380833 0.750942
vt 0.421575 0.751986
vt 0.421575 0.788352
vt 0.380833 0.787308
vt 0.455694 0.650327
vt 0.570373 0.478611
vt 0.584245 0.487892
vt 0.469566 0.659607
vt 0.227573 0.505305
vt 0.235374 0.487088
vt 0.250132 0.508933
vt 0.236258 0.518215
vt 0.947319 0.636958
vt 0.929725 0.635044
vt 0.929725 0.602496
vt 0.947319 0.607489
vt 0.585005 0.457091
vt 0.592890 0.475101
vt 0.799208 0.000000
vt 0.771821 0.000000
vt 0.350492 0.689543
vt 0.364366 0.680261
vt 0.425744 0.557635
vt 0.425744 0.351154
vt 0.453132 0.351154
vt 0.453132 0.557635
vt 0.090529 0.775691
vt 0.117916 0.775691
vt 0.864584 0.630468
vt 0.864584 0.581069
vt 0.364366 0.892358
vt 0.364366 0.788352
vt 0.405109 0.821104
vt 0.413765 0.892358
vt 0.188939 0.545820
vt 0.148197 0.546863
vt 0.148197 0.488741
vt 0.188939 0.487697
vt 0.543491 0.659607
vt 0.592890 0.659607
vt 0.592890 0.705107
vt 0.543491 0.705107
vt 0.257613 0.395435
vt 0.313567 0.351154
vt 0.444693 0.659607
vt 0.494092 0.659607
vt 0.494092 0.705107
vt 0.444693 0.705107
vt 0.527025 0.659607
vt 0.527025 0.705107
vt 0.380833 0.692819
vt 0.421575 0.693863
vt 0.205406 0.545820
vt 0.205406 0.487697
vt 0.536570 0.944363
vt 0.545227 0.873109
vt 0.585969 0.840357
vt 0.585969 0.944363
vt 0.863881 -0.000000
vt 0.967713 0.006379
vt 0.967713 0.141572
vt 0.863881 0.135194
vt 0.929725 0.707838
vt 0.864584 0.729265
vt 0.864584 0.679866
vt 0.929725 0.675290
vt 0.929725 0.647112
vt 0.864584 0.646934
vt 0.029151 0.775691
vt -0.000000 0.707661
vt 0.048835 0.707661
vt 0.056538 0.775691
vt 0.080747 0.775691
vt 0.081768 0.707661
vt 0.364366 0.557635
vt 0.364366 0.351154
vt 0.391754 0.351154
vt 0.391754 0.557635
vt 0.415963 0.557635
vt 0.415963 0.351154
vt 0.860586 0.000000
vt 0.860586 0.206571
vt 0.833199 0.206571
vt 0.833199 0.000000
vt 0.808989 0.000000
vt 0.808989 0.206571
vt 0.947319 0.702845
vt 0.947319 0.673376
vt 0.947319 0.647574
vt 0.188939 0.582185
vt 0.148197 0.583229
vt 0.364366 0.750942
vt 0.364366 0.787308
vt 0.863881 0.221914
vt 0.834412 0.221914
vt 0.808610 0.221914
vt 0.008094 0.636704
vt 0.048837 0.603813
vt 0.081769 0.603813
vt 0.181129 0.707574
vt 0.181129 0.603568
vt 0.197596 0.603568
vt 0.197596 0.707574
vt 0.967729 0.276394
vt 0.863881 0.282833
vt 0.863881 0.148012
vt 0.967729 0.141573
vt 0.543491 0.840357
vt 0.527025 0.840357
vt 0.188939 0.352512
vt 0.205406 0.352512
vt 0.364366 0.692819
vt 0.364366 0.557635
vt 0.380833 0.557635
vt 0.227102 0.352513
vt 0.225844 0.487701
vt 0.205406 0.487700
vt 0.206664 0.352512
vt 0.510558 0.705107
vt 0.510558 0.840357
vt 0.494092 0.840357
vt 0.148197 0.707574
vt 0.148197 0.603568
vt 0.164663 0.603568
vt 0.164663 0.707574
vt 0.065303 0.603813
vt 0.065301 0.707661
vt 0.823797 0.221914
vt 0.823417 0.206571
vt 0.205406 0.582185
vt 0.227102 0.545784
vt 0.226801 0.582150
vt 0.206363 0.582149
vt 0.206664 0.545783
vt 0.929725 0.663222
vt 0.947319 0.662760
vt 0.823417 0.000000
vt 0.401535 0.351154
vt 0.401535 0.557635
vt 0.066319 0.775691
vt 0.864584 0.663400
vt 0.510558 0.659607
vt 0.959867 0.455780
vt 0.943401 0.455780
vt 0.943401 0.320596
vt 0.959867 0.320596
vt 0.943401 0.513903
vt 0.959867 0.513903
vt 0.959867 0.550268
vt 0.943401 0.550268
vt 0.421575 0.750392
vt 0.422834 0.692468
vt 0.443275 0.692450
vt 0.442016 0.750374
vt 0.065303 0.583373
vt 0.081770 0.583373
vt 0.421575 0.557652
vt 0.442016 0.557635
vt 0.421876 0.786658
vt 0.442317 0.786640
vt 0.164663 0.583229
vt 0.181129 0.583229
vt 0.295316 0.781370
vt 0.295503 0.769728
vt 0.330606 0.770174
vt 0.330345 0.781300
vt 0.295730 0.755657
vt 0.296408 0.713446
vt 0.331070 0.716389
vt 0.330722 0.756728
vt 0.345895 0.758822
vt 0.344385 0.724110
vt 0.351749 0.728380
vt 0.354286 0.759981
vt 0.345678 0.779948
vt 0.346398 0.770393
vt 0.355132 0.770514
vt 0.354157 0.779201
vt 0.975923 0.859597
vt 0.975923 0.887609
vt 0.969684 0.881911
vt 0.968611 0.859779
vt 0.726165 0.027171
vt 0.768526 0.027360
vt 0.768526 0.084199
vt 0.726165 0.083842
vt 0.726165 0.116627
vt 0.768526 0.117028
vt 0.768526 0.151541
vt 0.726165 0.151094
vt 0.700503 0.116839
vt 0.712044 0.116494
vt 0.712044 0.150945
vt 0.700503 0.151202
vt 0.802836 0.737219
vt 0.767330 0.739584
vt 0.767330 0.685398
vt 0.802836 0.683820
vt 0.750432 0.741589
vt 0.741087 0.743208
vt 0.741087 0.687807
vt 0.750432 0.686949
vt 0.750432 0.654797
vt 0.741087 0.655343
vt 0.741087 0.621213
vt 0.750432 0.620997
vt 0.802836 0.652760
vt 0.767330 0.653812
vt 0.767330 0.620606
vt 0.802836 0.620108
vt 0.700503 0.213888
vt 0.712044 0.213718
vt 0.712078 0.239033
vt 0.701037 0.239155
vt 0.726165 0.213881
vt 0.768526 0.214373
vt 0.766137 0.239306
vt 0.725589 0.239088
vt 0.754579 0.256740
vt 0.722912 0.259376
vt 0.704317 0.255356
vt 0.702003 0.246584
vt 0.712388 0.260384
vt 0.703738 0.259835
vt 0.703574 0.258584
vt 0.802836 0.584677
vt 0.767330 0.584636
vt 0.750432 0.582709
vt 0.741087 0.582305
vt 0.747717 0.582350
vt 0.741087 0.581069
vt 0.743262 0.581760
vt 0.712044 0.190097
vt 0.700503 0.190278
vt 0.768526 0.190744
vt 0.726165 0.190259
vt 0.294594 0.826324
vt 0.329337 0.824259
vt 0.329545 0.848676
vt 0.294185 0.851769
vt 0.342895 0.816843
vt 0.350393 0.812742
vt 0.355313 0.825072
vt 0.346137 0.833477
vt 0.751184 0.768965
vt 0.742145 0.770652
vt 0.802836 0.762860
vt 0.767530 0.765913
vt 0.979322 0.561659
vt 0.979322 0.534253
vt 0.988983 0.534137
vt 0.988143 0.557669
vt 0.357042 0.717494
vt 0.363062 0.757871
vt 0.725589 0.000000
vt 0.766137 0.000217
vt 0.947319 0.594857
vt 0.968615 0.581068
vt 0.974083 0.589155
vt 0.955135 0.597693
vt 0.982095 0.477471
vt 0.983699 0.444621
vt 0.993332 0.445110
vt 0.991728 0.477960
vt 0.296792 0.689543
vt 0.332038 0.693502
vt 0.619333 0.321696
vt 0.654639 0.321616
vt 0.654639 0.348195
vt 0.619133 0.348817
vt 0.602235 0.473962
vt 0.619133 0.473458
vt 0.619133 0.512769
vt 0.602235 0.513273
vt 0.654639 0.473346
vt 0.654639 0.512657
vt 0.654639 0.536349
vt 0.619133 0.536462
vt 0.602235 0.536966
vt 0.824613 0.467169
vt 0.834125 0.465690
vt 0.834186 0.479176
vt 0.823129 0.479927
vt 0.845720 0.463656
vt 0.880555 0.462693
vt 0.888169 0.476060
vt 0.847672 0.477400
vt 0.873249 0.510916
vt 0.848599 0.511149
vt 0.889742 0.495880
vt 0.873578 0.496040
vt 0.823033 0.511369
vt 0.823033 0.492313
vt 0.834492 0.511267
vt 0.654639 0.405820
vt 0.619133 0.405933
vt 0.619133 0.438851
vt 0.654639 0.438739
vt 0.602235 0.439355
vt 0.619333 0.561991
vt 0.602987 0.562147
vt 0.654639 0.562052
vt 0.912130 0.475204
vt 0.915881 0.510475
vt 0.898410 0.510661
vt 0.898608 0.495785
vt 0.896726 0.459007
vt 0.723617 0.316153
vt 0.723299 0.307467
vt 0.731658 0.307442
vt 0.731974 0.315157
vt 0.978360 0.357956
vt 0.971036 0.412080
vt 0.964177 0.410940
vt 0.971357 0.357566
vt 0.979322 0.328034
vt 0.987919 0.320595
vt 0.993948 0.328153
vt 0.988115 0.331950
vt 0.413765 0.903684
vt 0.415744 0.876413
vt 0.422870 0.876427
vt 0.420965 0.900319
vt 0.823053 0.479930
vt 0.823055 0.479907
vt 0.824301 0.467206
vt 0.658369 0.003278
vt 0.701026 0.000617
vt 0.700503 0.027702
vt 0.655937 0.030584
vt 0.363062 0.782384
vt 0.690454 0.202994
vt 0.655937 0.192212
vt 0.655937 0.190979
vt 0.693372 0.213994
vt 0.655937 0.152194
vt 0.703293 0.259806
vt 0.703328 0.259654
vt 0.700045 0.239166
vt 0.655937 0.118172
vt 0.700503 0.084152
vt 0.655937 0.085809
vt 0.824306 0.467148
vt 0.824982 0.459482
vt 0.825427 0.459404
vt 0.834084 0.457523
vt 0.844637 0.455759
vt 0.593948 0.562233
vt 0.606496 0.581069
vt 0.599065 0.579655
vt 0.592890 0.537244
vt 0.592890 0.439634
vt 0.592890 0.474241
vt 0.592890 0.349721
vt 0.602235 0.349973
vt 0.602235 0.406437
vt 0.592890 0.406715
vt 0.876345 0.455301
vt 0.592890 0.513552
vt 0.593948 0.322492
vt 0.602987 0.322208
vt 0.348138 0.708951
vt 0.970325 0.803410
vt 0.963086 0.804331
vt 0.764785 0.584608
vt 0.723692 0.296898
vt 0.731974 0.297819
vt 0.979322 0.355350
vt 0.988979 0.355424
vt 0.966873 0.704963
vt 0.960429 0.674143
vt 0.967639 0.673172
vt 0.974083 0.703993
vt 0.452948 0.583204
vt 0.455006 0.597264
vt 0.445233 0.597076
vt 0.443275 0.584607
vt 0.426866 0.820549
vt 0.433277 0.788352
vt 0.440241 0.789179
vt 0.433830 0.821377
vt 0.340810 0.875734
vt 0.350763 0.875155
vt 0.350758 0.931167
vt 0.340801 0.931583
vt 0.705185 0.315509
vt 0.706066 0.307792
vt 0.713060 0.308344
vt 0.711159 0.317954
vt 0.341280 0.852348
vt 0.350887 0.851778
vt 0.746620 0.290458
vt 0.743840 0.275319
vt 0.757174 0.260384
vt 0.757174 0.282970
vt 0.967729 0.144083
vt 0.985159 0.141573
vt 0.985487 0.165317
vt 0.968578 0.166219
vt 0.984951 0.221597
vt 0.968049 0.221937
vt 0.362979 0.851769
vt 0.363289 0.875211
vt 0.705185 0.298198
vt 0.711088 0.296295
vt 0.363289 0.931278
vt 0.891348 0.990379
vt 0.873367 0.991023
vt 0.874885 0.969537
vt 0.891754 0.967147
vt 0.197596 0.725676
vt 0.199911 0.710397
vt 0.211552 0.718467
vt 0.211552 0.741362
vt 0.873956 0.915667
vt 0.890823 0.913807
vt 0.873367 0.883521
vt 0.890244 0.882226
vt 0.363289 0.964063
vt 0.350767 0.963938
vt 0.984631 0.254514
vt 0.967729 0.254854
vt 0.340801 0.964270
vt 0.983749 0.444621
vt 0.982126 0.411885
vt 0.991757 0.411357
vt 0.993380 0.444093
vt 0.949375 0.621271
vt 0.956788 0.621107
vt 0.987713 0.569053
vt 0.993836 0.561477
vt 0.960681 0.896197
vt 0.956795 0.887587
vt 0.967061 0.770652
vt 0.959822 0.771574
vt 0.166160 0.739684
vt 0.166160 0.753218
vt 0.157376 0.750836
vt 0.157376 0.737303
vt 0.695432 0.296337
vt 0.695432 0.319480
vt 0.685680 0.319438
vt 0.685680 0.296295
vt 0.979323 0.330413
vt 0.972688 0.336144
vt 0.966727 0.443929
vt 0.959867 0.442788
vt 0.964666 0.320596
vt 0.959867 0.328942
vt 0.453027 0.608774
vt 0.453027 0.631976
vt 0.443275 0.631985
vt 0.443275 0.608783
vt 0.167530 0.751952
vt 0.167530 0.738509
vt 0.176709 0.736462
vt 0.176709 0.749905
vt 0.452890 0.608774
vt 0.443275 0.607018
vt 0.435594 0.915127
vt 0.440241 0.906684
vt 0.260308 0.780174
vt 0.260405 0.769046
vt 0.260721 0.755603
vt 0.261669 0.715273
vt 0.245488 0.757209
vt 0.237064 0.758097
vt 0.240616 0.726594
vt 0.248113 0.722563
vt 0.245027 0.778331
vt 0.236576 0.777311
vt 0.235881 0.768598
vt 0.244614 0.768758
vt 0.967713 0.088700
vt 0.974949 0.089204
vt 0.973895 0.111223
vt 0.967713 0.116670
vt 0.498095 0.027398
vt 0.498095 0.084225
vt 0.455694 0.084269
vt 0.455694 0.027273
vt 0.498095 0.117101
vt 0.498095 0.151663
vt 0.455694 0.151797
vt 0.455694 0.117189
vt 0.523755 0.117314
vt 0.523755 0.151772
vt 0.512228 0.151618
vt 0.512228 0.117072
vt 0.838341 0.685398
vt 0.838341 0.739584
vt 0.855239 0.741589
vt 0.855239 0.686949
vt 0.864584 0.687807
vt 0.864584 0.743208
vt 0.855239 0.654797
vt 0.855239 0.620997
vt 0.864584 0.621213
vt 0.864584 0.655343
vt 0.838341 0.620606
vt 0.838341 0.653812
vt 0.523755 0.214632
vt 0.523207 0.239874
vt 0.512184 0.239867
vt 0.512228 0.214564
vt 0.498095 0.214624
vt 0.498661 0.239833
vt 0.458075 0.239750
vt 0.455694 0.214802
vt 0.501245 0.259595
vt 0.469597 0.256969
vt 0.519836 0.255567
vt 0.520555 0.258673
vt 0.520382 0.259882
vt 0.511750 0.260523
vt 0.522204 0.247079
vt 0.838341 0.584636
vt 0.857954 0.582350
vt 0.864584 0.582305
vt 0.855239 0.582709
vt 0.862409 0.581760
vt 0.864584 0.581069
vt 0.523755 0.190956
vt 0.512228 0.190878
vt 0.498095 0.190936
vt 0.455694 0.191109
vt 0.258943 0.847542
vt 0.259936 0.823143
vt 0.246622 0.815296
vt 0.242848 0.831818
vt 0.233947 0.823121
vt 0.239260 0.810956
vt 0.854487 0.768965
vt 0.863527 0.770652
vt 0.838141 0.765913
vt 1.000000 0.258610
vt 0.991179 0.254620
vt 0.990340 0.231089
vt 1.000000 0.231205
vt 0.228361 0.755706
vt 0.235675 0.715544
vt 0.498661 0.000084
vt 0.458075 0.000000
vt 0.942640 0.469118
vt 0.934843 0.471692
vt 0.915881 0.463350
vt 0.921345 0.455301
vt 0.997228 0.174423
vt 0.987595 0.174912
vt 0.985991 0.142062
vt 0.995624 0.141572
vt 0.261437 0.692367
vt 0.689944 0.321696
vt 0.690144 0.348817
vt 0.707042 0.473962
vt 0.707042 0.513273
vt 0.690144 0.512769
vt 0.690144 0.473458
vt 0.690144 0.536462
vt 0.707042 0.536966
vt 0.825465 0.554304
vt 0.823731 0.541489
vt 0.834802 0.542197
vt 0.835005 0.555771
vt 0.846642 0.558017
vt 0.848325 0.544275
vt 0.888847 0.545467
vt 0.881496 0.558974
vt 0.873869 0.525781
vt 0.890032 0.525621
vt 0.823399 0.529812
vt 0.690144 0.405933
vt 0.690144 0.438851
vt 0.707042 0.439355
vt 0.706290 0.562147
vt 0.689944 0.561991
vt 0.912820 0.545811
vt 0.898899 0.525527
vt 0.897735 0.562305
vt 0.740076 0.316151
vt 0.731974 0.315110
vt 0.732248 0.307402
vt 0.740347 0.307474
vt 0.960830 0.481426
vt 0.967833 0.480694
vt 0.975013 0.533915
vt 0.968153 0.535399
vt 0.990549 0.778091
vt 0.981756 0.782007
vt 0.975923 0.778210
vt 0.981952 0.770652
vt 0.224017 0.698892
vt 0.216913 0.695800
vt 0.215006 0.671868
vt 0.222022 0.671536
vt 0.823655 0.541486
vt 0.823657 0.541508
vt 0.825152 0.554271
vt 0.565827 0.002988
vt 0.568265 0.030420
vt 0.523755 0.027930
vt 0.523223 0.000704
vt 0.227573 0.780207
vt 0.568265 0.191259
vt 0.568265 0.192494
vt 0.568265 0.152366
vt 0.520792 0.259702
vt 0.520826 0.259848
vt 0.568265 0.118250
vt 0.568265 0.085798
vt 0.523755 0.084537
vt 0.825157 0.554330
vt 0.826434 0.562426
vt 0.825987 0.562350
vt 0.835127 0.564304
vt 0.845716 0.566135
vt 0.715330 0.562233
vt 0.710212 0.579655
vt 0.702781 0.581069
vt 0.716387 0.537244
vt 0.716387 0.439634
vt 0.716387 0.474241
vt 0.716387 0.349721
vt 0.716387 0.406715
vt 0.707042 0.406437
vt 0.707042 0.349973
vt 0.877431 0.566443
vt 0.716387 0.513552
vt 0.715330 0.322492
vt 0.706290 0.322209
vt 0.244849 0.707291
vt 0.973294 0.032668
vt 0.980458 0.033910
vt 0.840886 0.584608
vt 0.731974 0.297772
vt 0.739994 0.296898
vt 0.990549 0.805407
vt 0.980892 0.805481
vt 0.923068 0.579541
vt 0.915881 0.578245
vt 0.922330 0.547337
vt 0.929516 0.548633
vt 0.445333 0.557635
vt 0.455006 0.559038
vt 0.453048 0.571507
vt 0.443275 0.571695
vt 0.210874 0.615516
vt 0.204021 0.616665
vt 0.197596 0.584378
vt 0.204449 0.583229
vt 0.737830 0.810843
vt 0.737839 0.866846
vt 0.727895 0.866525
vt 0.727890 0.810359
vt 0.723299 0.316113
vt 0.717324 0.318557
vt 0.715423 0.308947
vt 0.722417 0.308395
vt 0.737357 0.787377
vt 0.727763 0.786901
vt 0.222106 0.740471
vt 0.211552 0.732983
vt 0.211552 0.710397
vt 0.224886 0.725332
vt 0.991841 0.583579
vt 0.990991 0.605715
vt 0.974083 0.604813
vt 0.974411 0.581069
vt 0.991521 0.661433
vt 0.974619 0.661093
vt 0.715351 0.810315
vt 0.715659 0.786793
vt 0.717395 0.296898
vt 0.723299 0.298802
vt 0.715351 0.866537
vt 0.892159 0.990379
vt 0.908622 0.969537
vt 0.910140 0.991023
vt 0.197569 0.722853
vt 0.183612 0.738539
vt 0.183612 0.715644
vt 0.195254 0.707574
vt 0.892684 0.913807
vt 0.909551 0.915667
vt 0.893263 0.882226
vt 0.910140 0.883521
vt 0.727886 0.899386
vt 0.715351 0.899413
vt 0.991841 0.694350
vt 0.974938 0.694010
vt 0.737839 0.899623
vt 0.986122 0.894678
vt 0.976491 0.894150
vt 0.978114 0.861414
vt 0.987745 0.861942
vt 0.940579 0.495610
vt 0.933189 0.495126
vt 0.991610 0.266004
vt 0.985487 0.258429
vt 0.986777 0.116923
vt 0.982920 0.125398
vt 0.976549 0.000000
vt 0.983712 0.001242
vt 0.183612 0.740920
vt 0.192397 0.738539
vt 0.192397 0.752073
vt 0.183612 0.754454
vt 0.695432 0.296337
vt 0.705185 0.296295
vt 0.705185 0.319438
vt 0.695432 0.319480
vt 0.959867 0.453919
vt 0.966502 0.459426
vt 0.979322 0.565675
vt 0.972463 0.567158
vt 0.974524 0.443929
vt 0.979322 0.452181
vt 0.453027 0.631993
vt 0.453027 0.655195
vt 0.443275 0.655186
vt 0.157376 0.752793
vt 0.148197 0.750746
vt 0.148197 0.737303
vt 0.157376 0.739350
vt 0.455006 0.581448
vt 0.445391 0.583204
vt 0.202208 0.710397
vt 0.197596 0.702042
vt 0.909851 0.835970
vt 0.906971 0.862988
vt 0.880883 0.866585
vt 0.873367 0.838315
vt 0.656910 0.310543
vt 0.656279 0.284860
vt 0.685516 0.284860
vt 0.685220 0.310543
vt 0.668437 0.310543
vt 0.303514 0.947379
vt 0.277411 0.943816
vt 0.274540 0.916870
vt 0.311058 0.919154
vt 0.716470 0.296898
vt 0.715423 0.260384
vt 0.743840 0.260384
vt 0.741998 0.296898
vt 0.253561 0.951819
vt 0.246417 0.924386
vt 0.930812 0.870994
vt 0.937955 0.843480
vt 0.955467 0.875674
vt 0.956795 0.882226
vt 0.948018 0.874543
vt 0.931883 0.872326
vt 0.243961 0.910899
vt 0.270092 0.900895
vt 0.655937 0.260384
vt 0.685680 0.260384
vt 0.340801 0.851769
vt 0.340801 0.858366
vt 0.311058 0.858366
vt 0.311058 0.851769
vt 0.325929 0.853387
vt 0.340796 0.891159
vt 0.311058 0.891159
vt 0.453132 0.380897
vt 0.453132 0.351154
vt 0.454455 0.351154
vt 0.453877 0.366025
vt 0.454455 0.380897
vt 0.227573 0.963039
vt 0.228902 0.956505
vt 0.252489 0.953149
vt 0.236352 0.955371
vt 0.231019 0.887904
vt 0.250611 0.887395
vt 0.340799 0.904598
vt 0.311058 0.904598
vt 0.183612 0.707889
vt 0.183612 0.736306
vt 0.167530 0.736462
vt 0.167530 0.707574
vt 0.914294 0.819944
vt 0.940411 0.829954
vt 0.953350 0.806885
vt 0.933762 0.806390
vt 0.948716 0.786821
vt 0.956795 0.789851
vt 0.167530 0.708165
vt 0.167530 0.737053
vt 0.148197 0.737303
vt 0.148197 0.707574
vt 0.340801 0.927217
vt 0.311058 0.927217
vt 0.311058 0.944130
vt 0.340801 0.944130
vt 0.340801 0.961026
vt 0.311058 0.961026
vt 0.227573 0.870920
vt 0.235654 0.867892
vt 0.715411 0.296295
vt 0.685682 0.296295
vt 0.685680 0.276582
vt 0.715423 0.276582
vt 0.748676 0.290458
vt 0.748676 0.320201
vt 0.743840 0.320203
vt 0.743840 0.290460
vt 0.228440 0.854097
vt 0.233249 0.851769
vt 0.685680 0.260384
vt 0.715423 0.260384
vt 0.951121 0.770652
vt 0.955929 0.772982
s 1
usemtl Wood
f 226/1/1 92/2/2 188/3/3 222/4/1
f 159/5/4 229/6/5 233/7/6
f 237/8/7 243/9/8 115/10/9
f 192/11/10 135/12/11 38/13/12 171/14/12
f 255/15/13 253/16/13 110/17/14 155/18/15 249/19/16 247/20/13 251/21/13
f 106/22/17 183/23/18 259/24/19 261/25/20
f 168/26/21 175/27/22 70/28/23 13/29/24
f 135/30/25 144/31/26 78/32/27 38/33/28
f 122/34/29 150/35/30 88/36/31 52/37/32
f 171/38/33 180/39/34 76/40/35 69/41/36
f 218/42/37 183/23/18 106/22/17 193/43/38
f 211/44/39 155/18/15 110/17/14 199/45/40
f 265/46/41 237/8/7 115/10/9 200/47/42 208/48/43 159/5/4 233/7/6
f 215/49/44 188/3/3 92/2/2 206/50/45
f 206/51/46 92/52/47 159/5/4 208/48/43
f 269/53/48 275/54/49 155/18/15 211/44/39 193/55/50 106/56/51 277/57/52
f 69/58/53 76/59/54 150/35/30 122/34/29
f 13/60/55 70/61/56 144/31/26 135/30/25
f 155/18/15 275/54/49 249/19/16
f 106/56/51 261/62/57 277/57/52
f 168/63/58 13/64/58 135/12/11 192/11/10
f 291/65/59 229/6/5 159/5/4 92/52/47 226/66/59 288/67/59 283/68/59
f 52/69/58 168/63/58 192/11/10 122/70/11
f 199/71/60 110/72/2 188/3/3 215/49/44
f 200/73/61 115/74/62 183/23/18 218/42/37
f 38/75/63 78/76/64 180/39/34 171/38/33
f 52/77/65 88/78/66 175/27/22 168/26/21
f 183/23/18 115/74/62 243/79/67 259/24/19
f 122/70/11 192/11/10 171/14/12 69/80/12
f 222/4/1 188/3/3 110/72/2 253/81/1
f 88/78/66 200/73/61 218/42/37 175/27/22
f 78/76/64 199/82/60 215/83/44 180/39/34
f 70/61/56 193/55/50 211/44/39 144/31/26
f 76/59/54 206/51/46 208/48/43 150/35/30
f 180/39/34 215/83/44 206/84/45 76/40/35
f 150/35/30 208/48/43 200/47/42 88/36/31
f 144/31/26 211/44/39 199/45/40 78/32/27
f 175/27/22 218/42/37 193/43/38 70/28/23
f 108/85/68 75/86/69 26/87/70 101/88/71
f 253/89/72 255/90/73 101/91/74 26/92/72 9/93/72 99/94/74 288/95/75 226/96/72 222/97/72
f 237/98/76 265/99/76 6/100/76 60/101/76 72/102/76 23/103/76 269/104/76 277/105/76 261/106/76 259/107/76 243/108/76
f 471/109/77 470/110/77 469/111/77 474/112/77 467/113/77 466/114/77 468/115/77 475/116/77 499/117/77 498/118/77 501/119/77 500/120/77 502/121/77 462/122/77 461/123/77 460/124/77 463/125/77 464/126/77 465/127/77 457/128/77 458/129/77 459/130/78 65/131/79 9/132/77 26/133/77 75/134/80 472/135/81 473/136/77
f 499/117/77 475/116/77 462/122/77 502/121/77
f 229/137/82 291/138/83 42/139/84 6/140/82 265/141/82 233/142/82
f 275/143/82 269/144/82 23/145/82 47/146/84 251/147/85 247/148/82 249/149/82
f 72/150/86 82/151/87 47/152/88 23/153/89
f 6/154/90 42/155/91 85/156/92 60/157/93
f 99/158/94 9/159/95 65/160/96 118/161/97
f 42/155/91 99/158/94 118/161/97 85/156/92
f 283/162/98 288/95/75 99/94/74 42/139/84 291/138/83
f 251/147/85 47/146/84 101/91/74 255/90/73
f 82/151/87 108/85/68 101/88/71 47/152/88
f 108/85/68 165/163/99 141/164/100 75/86/69
f 476/165/101 480/166/102 157/167/103 477/168/101
f 481/169/101 141/170/101 165/171/103 479/172/102 478/173/101
f 60/101/76 125/174/76 132/175/76 72/102/76
f 485/176/104 65/131/79 459/130/78 486/177/104
f 483/178/104 472/135/81 75/134/80 141/179/104 481/180/104 482/181/104 484/182/104
f 491/183/105 490/184/106 153/185/107 338/186/105 331/187/105 330/188/105 325/189/105 323/190/105 315/191/105 146/192/107 487/193/106 488/194/105 489/195/105
f 336/196/105 338/186/105 153/185/107 132/197/105 125/198/105 146/192/107 315/191/105 317/199/105 319/200/105 322/201/105 327/202/105 334/203/105
f 72/150/86 132/204/57 153/205/108 82/151/87
f 125/206/8 60/157/93 85/156/92 146/207/109
f 493/208/110 477/209/111 157/210/112 118/161/97 65/160/96 485/211/113 492/212/114
f 146/207/109 85/156/92 118/161/97 157/210/112
f 487/193/106 146/192/107 157/167/103 480/166/102 495/213/115 494/214/115
f 165/171/103 153/185/107 490/184/106 497/215/115 496/216/115 479/172/102
f 82/151/87 153/205/108 165/163/99 108/85/68
f 80/217/116 10/218/117 20/219/118 83/220/119
f 83/220/119 20/219/118 95/221/120 100/222/120
f 86/223/121 50/224/122 34/225/123 91/226/124
f 162/227/82 130/228/82 10/229/82 80/230/82
f 109/231/76 43/232/76 30/233/76 127/234/76
f 113/235/125 20/236/126 10/237/127 130/238/127
f 315/239/8 57/240/128 3/241/129 317/242/8
f 43/243/130 63/244/131 66/245/132 30/246/133
f 109/247/134 148/248/135 63/249/136 43/250/134
f 3/241/129 57/240/128 58/251/137 17/252/138
f 334/253/76 127/234/76 30/233/76 336/254/76
f 336/255/57 30/246/133 66/245/132 338/256/57
f 323/257/139 139/258/139 57/259/139 315/260/139
f 139/261/82 162/227/82 80/230/82 57/262/82
f 63/244/131 86/223/121 91/226/124 66/245/132
f 148/248/135 173/263/140 86/264/140 63/249/136
f 57/240/128 80/217/116 83/220/119 58/251/137
f 185/265/141 178/266/141 97/267/141 104/268/141
f 120/269/142 50/270/143 97/271/144 178/272/144
f 166/273/145 83/274/145 100/275/145 182/276/146
f 50/224/122 86/223/121 104/277/147 97/278/147
f 86/279/145 173/280/145 185/281/146 104/282/145
f 268/283/145 166/273/145 182/276/146 281/284/148
f 20/236/126 113/235/125 177/285/149 95/286/149
f 216/287/150 120/269/150 178/272/151 280/288/151
f 100/289/152 95/290/152 177/291/152 182/292/152
f 182/293/8 177/294/8 190/295/8 197/296/8
f 58/297/136 83/298/140 166/299/140 143/300/135
f 245/301/135 272/302/140 173/263/140 148/248/135
f 66/303/82 91/304/82 160/305/82 136/306/82
f 239/307/82 263/308/82 162/227/82 139/261/82
f 338/309/139 66/310/139 136/311/139 331/312/139
f 325/313/139 239/314/139 139/258/139 323/257/139
f 317/315/76 3/316/76 124/317/76 319/318/76
f 327/319/76 224/320/76 127/234/76 334/253/76
f 17/321/134 58/297/136 143/300/135 112/322/134
f 204/323/134 245/301/135 148/248/135 109/247/134
f 50/270/143 120/269/142 128/324/153 34/325/153
f 213/326/150 113/235/150 130/238/139 232/327/139
f 17/328/76 112/329/76 124/317/76 3/316/76
f 204/330/76 109/231/76 127/234/76 224/320/76
f 91/304/82 34/331/82 128/332/82 160/305/82
f 263/308/82 232/333/154 130/228/82 162/227/82
f 297/334/155 294/335/156 195/336/155 203/337/155
f 178/338/57 185/339/57 203/340/57 195/341/57
f 281/284/148 182/276/146 197/342/157 296/343/157
f 280/288/151 178/272/151 195/344/158 294/345/158
f 177/285/151 274/346/151 289/347/158 190/348/158
f 289/349/8 274/350/8 307/351/8 312/352/8
f 185/281/146 285/353/148 297/354/157 203/355/157
f 285/353/148 281/284/148 296/343/157 297/354/157
f 197/356/155 190/357/155 289/358/156 296/359/155
f 296/359/155 289/358/156 294/335/156 297/334/155
f 160/305/82 128/332/82 228/360/154 258/361/82
f 258/361/82 228/360/154 232/333/154 263/308/82
f 112/329/76 209/362/76 220/363/76 124/317/76
f 209/362/76 204/330/76 224/320/76 220/363/76
f 120/269/150 216/287/150 228/364/139 128/324/139
f 213/365/8 232/366/8 305/367/8 299/368/8
f 112/322/134 143/300/135 241/369/135 209/370/134
f 209/370/134 241/369/135 245/301/135 204/323/134
f 319/318/76 124/317/76 220/363/76 322/371/76
f 220/363/76 224/320/76 327/319/76 322/371/76
f 331/312/139 136/311/139 236/372/139 330/373/139
f 330/373/139 236/372/139 239/314/139 325/313/139
f 136/306/82 160/305/82 258/361/82 236/374/82
f 236/374/82 258/361/82 263/308/82 239/307/82
f 143/300/135 166/299/140 268/375/140 241/369/135
f 241/369/135 268/375/140 272/302/140 245/301/135
f 113/235/150 213/326/150 274/346/151 177/285/151
f 274/350/8 213/365/8 299/368/8 307/351/8
f 173/280/145 272/376/145 285/353/148 185/281/146
f 272/376/145 268/283/145 281/284/148 285/353/148
f 307/377/151 309/378/151 314/379/158 312/380/158
f 301/381/150 299/382/150 305/383/139 304/384/139
f 299/382/150 301/381/150 309/378/151 307/377/151
f 216/385/57 280/386/57 309/387/57 301/388/57
f 232/333/154 228/360/154 304/389/159 305/390/159
f 280/386/57 294/391/57 314/392/57 309/387/57
f 228/393/57 216/385/57 301/388/57 304/394/57
f 294/335/156 289/358/156 312/395/160 314/396/160
f 179/397/161 119/398/162 121/399/163 181/400/164
f 154/401/165 35/402/166 62/403/167 156/404/168
f 231/405/169 194/406/170 12/407/171 142/408/172
f 235/409/173 212/410/174 64/411/175 169/412/176
f 201/413/177 219/414/178 306/415/179 320/416/180
f 151/417/181 28/418/182 68/419/183 158/420/183
f 252/421/183 238/422/183 4/423/183 145/424/183
f 254/425/184 246/426/185 71/427/57 170/428/184
f 61/429/186 102/430/187 123/431/188 116/432/76
f 210/433/189 24/434/190 89/435/191 214/436/191
f 257/437/191 240/438/191 1/439/191 196/440/191
f 244/441/76 248/442/188 73/443/188 40/444/76
f 174/445/192 84/446/193 126/447/194 186/448/195
f 149/449/196 22/450/197 81/451/198 161/452/199
f 161/452/199 81/451/198 16/453/200 147/454/201
f 472/455/202 483/456/203 186/448/204 126/447/205 74/457/206 172/458/207 473/459/208
f 489/460/76 40/444/76 73/443/188 491/461/188
f 497/462/191 196/440/191 1/439/191 79/463/191 496/464/191
f 496/464/191 79/463/191 478/465/191 479/466/191
f 170/428/184 71/427/57 129/467/57 187/468/184
f 145/424/183 4/423/183 77/469/183 163/470/183
f 163/470/183 77/469/183 22/450/197 149/449/196
f 187/468/184 129/467/57 84/446/193 174/445/192
f 32/471/209 94/472/210 131/473/211 103/474/212
f 202/475/213 7/476/214 67/477/215 217/478/215
f 217/479/216 67/480/216 24/434/190 210/433/189
f 103/481/217 131/482/218 102/430/187 61/429/186
f 164/483/219 151/484/220 264/485/221 295/486/222
f 142/408/223 12/407/171 90/487/224 164/488/223
f 164/489/225 90/490/225 28/418/182 151/417/181
f 131/491/226 94/492/226 270/493/226 290/494/226
f 158/495/227 252/496/227 321/497/227 278/498/227
f 62/403/167 35/402/166 105/499/228 133/500/229
f 133/501/230 105/502/231 59/503/232 93/504/233
f 205/505/234 96/506/234 134/507/234 221/508/234
f 96/506/235 45/509/139 107/510/139 134/507/235
f 134/507/235 107/510/139 55/511/236 87/512/237
f 221/508/234 134/507/234 87/512/238 198/513/239
f 234/514/240 223/515/241 137/516/242 191/517/243
f 230/518/244 207/519/245 98/520/246 167/521/247
f 505/522/248 152/523/249 167/521/247 98/520/246 504/524/250 503/525/250
f 475/526/251 468/527/252 191/517/243 137/516/242 111/528/253
f 93/504/233 59/503/232 114/529/139 138/530/235
f 250/531/235 242/532/139 45/509/139 96/506/235
f 256/533/234 250/531/234 96/506/234 205/505/234
f 198/513/239 87/512/238 140/534/254 227/535/255
f 87/512/237 55/511/236 117/536/256 140/534/257
f 98/520/258 140/537/259 117/538/260 506/539/260 507/540/261 504/524/261
f 227/541/262 140/537/259 98/520/258 207/519/263
f 169/542/264 64/543/265 262/544/266 313/545/264
f 210/546/267 214/547/268 286/548/268 271/549/269
f 137/516/242 167/521/247 152/523/249 111/528/253
f 223/515/241 230/518/244 167/521/247 137/516/242
f 189/550/270 169/551/271 313/552/271 298/553/272
f 129/467/57 163/470/183 149/449/196 84/446/193
f 71/427/57 145/424/183 163/470/183 129/467/57
f 126/447/205 161/452/199 147/454/201 74/457/206
f 84/446/193 149/449/196 161/452/199 126/447/194
f 246/426/185 252/421/183 145/424/183 71/427/57
f 133/554/273 93/555/274 303/556/275 302/557/273
f 212/410/174 231/405/169 142/408/172 64/411/175
f 119/398/162 154/401/165 156/404/168 121/399/163
f 466/558/276 191/517/243 468/527/252
f 467/559/277 474/560/278 234/514/240 191/517/243 466/558/276
f 67/561/279 189/562/279 176/563/280 24/564/281
f 7/476/282 169/412/282 189/565/282 67/477/282
f 481/566/184 478/567/184 79/568/184 187/468/184 174/445/192 482/569/283
f 1/570/184 170/428/184 187/468/184 79/568/184
f 172/458/207 470/571/284 471/572/285 473/459/208
f 186/448/204 483/456/203 484/573/286
f 482/569/283 174/445/192 186/448/195 484/573/287
f 240/574/184 254/425/184 170/428/184 1/570/184
f 24/564/281 176/563/280 184/575/184 89/576/184
f 202/475/213 235/409/173 169/412/176 7/476/214
f 32/471/209 179/397/161 181/400/164 94/472/210
f 94/472/210 181/400/164 235/409/173 202/475/213
f 469/577/288 470/578/284 172/579/207 234/514/240 474/560/278
f 121/399/163 156/404/168 231/405/169 212/410/174
f 74/580/289 147/581/290 230/518/244 223/515/241
f 81/582/291 227/535/262 207/583/263 16/584/291
f 22/585/292 198/513/239 227/535/255 81/582/293
f 238/586/234 256/533/234 205/505/234 4/587/234
f 28/588/294 201/589/295 225/590/234 68/591/234
f 147/581/290 16/592/296 207/519/245 230/518/244
f 172/579/207 74/580/289 223/515/241 234/514/240
f 77/593/234 221/508/234 198/513/239 22/585/292
f 4/587/234 205/505/234 221/508/234 77/593/234
f 90/594/297 219/595/297 201/589/295 28/588/294
f 12/407/171 194/406/170 219/596/298 90/487/224
f 225/597/299 201/413/177 320/416/180 311/598/299
f 491/461/191 73/443/191 196/440/191 497/462/191 490/599/191
f 248/442/191 257/437/191 196/440/191 73/443/191
f 181/400/164 121/399/163 212/410/174 235/409/173
f 156/404/168 62/403/167 194/406/170 231/405/169
f 68/591/234 225/590/234 256/533/234 238/586/234
f 89/576/184 184/575/184 254/425/184 240/574/184
f 64/543/265 142/600/300 260/601/300 262/544/266
f 176/602/301 189/550/270 298/553/272 316/603/302
f 248/604/303 123/605/304 284/606/304 287/607/303
f 252/608/305 246/609/306 279/610/306 321/611/305
f 138/530/235 114/529/139 242/532/139 250/531/235
f 116/432/76 123/431/188 248/442/188 244/441/76
f 214/436/191 89/435/191 240/438/191 257/437/191
f 138/612/307 250/613/308 310/614/308 308/615/307
f 158/420/183 68/419/183 238/422/183 252/421/183
f 316/616/309 266/617/310 276/618/311 282/619/312
f 313/620/313 262/621/314 293/622/315 298/623/313
f 298/624/316 293/625/317 266/617/310 316/616/309
f 318/626/318 300/627/318 302/628/318 306/629/318
f 306/630/319 302/631/319 303/632/320 320/633/321
f 320/633/321 303/632/320 308/634/322 311/635/322
f 293/625/317 295/636/323 264/637/324 266/617/310
f 262/621/314 260/638/325 295/639/325 293/622/315
f 266/617/310 264/637/324 278/640/326 276/618/311
f 290/641/327 292/642/327 271/643/328 273/644/329
f 270/645/330 267/646/330 292/647/330 290/648/330
f 273/644/329 271/643/328 286/649/331 284/650/331
f 284/650/331 286/649/331 328/651/191 287/652/191
f 276/618/311 278/640/326 321/653/326 279/654/332
f 311/635/322 308/634/322 310/655/234 326/656/234
f 282/619/312 276/618/311 279/654/332 324/657/312
f 254/658/333 184/659/334 282/660/334 324/661/333
f 102/662/335 131/491/336 290/494/336 273/663/337
f 142/664/338 164/483/219 295/486/222 260/665/338
f 219/414/178 194/666/339 318/667/339 306/415/179
f 256/668/340 225/597/299 311/598/299 326/669/340
f 184/659/334 176/602/301 316/603/302 282/660/334
f 94/670/341 202/671/341 267/672/341 270/673/341
f 250/674/105 256/675/105 326/676/105 310/677/105
f 217/678/342 210/546/267 271/549/269 292/679/343
f 214/547/268 257/680/344 328/681/344 286/548/268
f 202/682/345 217/678/342 292/679/343 267/683/345
f 257/684/346 248/685/346 287/686/346 328/687/346
f 194/688/347 62/689/347 300/690/347 318/691/347
f 93/555/274 138/612/307 308/615/307 303/556/275
f 123/605/304 102/662/335 273/663/337 284/606/304
f 246/609/306 254/692/348 324/693/348 279/610/306
f 62/694/349 133/554/349 302/557/349 300/695/349
f 151/484/220 158/495/227 278/498/227 264/485/221
f 179/397/161 387/696/350 361/697/351 119/398/162
f 154/401/165 376/698/352 342/699/353 35/402/166
f 410/700/354 371/701/355 335/702/356 393/703/357
f 412/704/358 382/705/359 343/706/360 401/707/361
f 396/708/362 452/709/363 445/710/364 404/711/365
f 375/712/366 377/713/367 345/714/367 341/715/368
f 418/716/367 372/717/367 332/718/367 413/719/367
f 419/720/369 383/721/369 346/722/8 415/723/370
f 61/429/186 116/432/76 362/724/371 360/725/372
f 400/726/373 402/727/374 354/728/374 340/729/375
f 421/730/374 394/731/374 329/732/374 414/733/374
f 244/441/76 40/444/76 347/734/371 416/735/371
f 385/736/376 389/737/377 363/738/378 352/739/379
f 374/740/380 378/741/381 351/742/382 339/743/383
f 378/741/381 373/744/384 337/745/385 351/742/382
f 459/746/386 458/747/387 384/748/388 348/749/389 363/738/390 389/737/391 486/750/392
f 488/751/371 347/734/371 40/444/76 489/460/76
f 495/752/374 350/753/374 329/732/374 394/731/374 494/754/374
f 350/753/374 495/752/374 480/755/374 476/756/374
f 383/721/369 390/757/369 364/758/8 346/722/8
f 372/717/367 379/759/367 349/760/367 332/718/367
f 379/759/367 374/740/380 339/743/383 349/760/367
f 390/757/369 385/736/376 352/739/379 364/758/8
f 32/471/209 103/474/212 365/761/393 357/762/394
f 397/763/395 403/764/396 344/765/396 333/766/397
f 403/767/398 400/726/373 340/729/375 344/768/398
f 103/481/217 61/429/186 360/725/372 365/769/399
f 380/770/400 440/771/401 424/772/402 375/773/403
f 371/701/404 380/774/404 355/775/405 335/702/356
f 380/776/406 375/712/366 341/715/368 355/777/406
f 365/778/407 437/779/407 427/780/407 357/781/407
f 377/782/408 431/783/408 453/784/408 418/785/408
f 342/699/353 366/786/409 105/499/228 35/402/166
f 366/787/410 356/788/411 59/503/232 105/502/231
f 398/789/412 405/790/412 367/791/412 358/792/412
f 358/792/413 367/791/413 107/510/139 45/509/139
f 367/791/413 353/793/414 55/511/236 107/510/139
f 405/790/412 395/794/415 353/793/416 367/791/412
f 411/795/417 392/796/418 368/797/419 406/798/420
f 409/799/421 381/800/422 359/801/423 399/802/424
f 359/801/423 381/800/422 152/523/249 505/522/248 508/803/425 509/804/425
f 462/805/426 475/526/251 111/528/253 368/797/419 392/796/418
f 356/788/411 369/806/413 114/529/139 59/503/232
f 417/807/413 358/792/413 45/509/139 242/532/139
f 420/808/412 398/789/412 358/792/412 417/807/412
f 395/794/415 408/809/427 370/810/428 353/793/416
f 353/793/414 370/810/429 117/536/256 55/511/236
f 506/539/260 117/538/260 370/811/430 359/801/431 509/804/432 510/812/432
f 408/813/433 399/802/434 359/801/431 370/811/430
f 382/814/435 449/815/435 423/816/436 343/817/437
f 400/818/438 428/819/439 435/820/440 402/821/440
f 368/797/419 111/528/253 152/523/249 381/800/422
f 406/798/420 368/797/419 381/800/422 409/799/421
f 391/822/441 441/823/442 449/824/443 382/825/443
f 364/758/8 352/739/379 374/740/380 379/759/367
f 346/722/8 364/758/8 379/759/367 372/717/367
f 363/738/390 348/749/389 373/744/384 378/741/381
f 352/739/379 363/738/378 378/741/381 374/740/380
f 415/723/370 346/722/8 372/717/367 418/716/367
f 366/826/444 443/827/444 444/828/445 356/829/446
f 401/707/361 343/706/360 371/701/355 410/700/354
f 119/398/162 361/697/351 376/698/352 154/401/165
f 392/796/418 461/830/447 462/805/426
f 460/831/448 461/830/447 392/796/418 411/795/417 463/832/449
f 344/833/450 340/834/451 386/835/452 391/836/450
f 333/766/453 344/765/453 391/837/453 382/705/453
f 493/208/110 385/736/376 390/757/369 350/838/369 476/839/369 477/209/111
f 329/840/369 350/838/369 390/757/369 383/721/369
f 384/748/388 458/747/387 457/841/454 465/842/455
f 485/211/456 486/750/392 389/737/391 492/212/456
f 389/737/377 385/736/376 493/208/110 492/212/114
f 414/843/369 329/840/369 383/721/369 419/720/369
f 340/834/451 354/844/369 388/845/369 386/835/452
f 397/763/395 333/766/397 382/705/359 412/704/358
f 32/471/209 357/762/394 387/696/350 179/397/161
f 357/762/394 397/763/395 412/704/358 387/696/350
f 464/846/457 463/832/449 411/795/417 384/847/388 465/848/455
f 361/697/351 401/707/361 410/700/354 376/698/352
f 348/849/458 406/798/420 409/799/421 373/850/459
f 351/851/460 337/852/460 399/853/434 408/809/433
f 339/854/461 351/851/462 408/809/427 395/794/415
f 413/855/412 332/856/412 398/789/412 420/808/412
f 341/857/463 345/858/412 407/859/412 396/860/464
f 373/850/459 409/799/421 399/802/424 337/861/465
f 384/847/388 411/795/417 406/798/420 348/849/458
f 349/862/412 339/854/461 395/794/415 405/790/412
f 332/856/412 349/862/412 405/790/412 398/789/412
f 355/863/466 341/857/463 396/860/464 404/864/466
f 335/702/356 355/775/405 404/865/467 393/703/357
f 407/866/468 448/867/468 452/709/363 396/708/362
f 487/868/374 494/754/374 394/731/374 347/734/374 488/751/374
f 416/735/374 347/734/374 394/731/374 421/730/374
f 387/696/350 412/704/358 401/707/361 361/697/351
f 376/698/352 410/700/354 393/703/357 342/699/353
f 345/858/412 413/855/412 420/808/412 407/859/412
f 354/844/369 414/843/369 419/720/369 388/845/369
f 343/817/437 423/816/436 422/869/469 371/870/469
f 386/871/470 450/872/471 441/823/442 391/822/441
f 416/873/472 436/874/472 434/875/473 362/876/473
f 418/877/474 453/878/474 432/879/475 415/880/475
f 369/806/413 417/807/413 242/532/139 114/529/139
f 116/432/76 244/441/76 416/735/371 362/724/371
f 402/727/374 421/730/374 414/733/374 354/728/374
f 369/881/476 446/882/476 447/883/477 417/884/477
f 377/713/367 418/716/367 413/719/367 345/714/367
f 450/885/478 433/886/479 430/887/480 425/888/481
f 449/889/482 441/890/482 439/891/483 423/892/484
f 441/893/485 450/885/478 425/888/481 439/894/486
f 451/895/487 445/896/487 443/897/487 442/898/487
f 445/899/488 452/900/489 444/901/490 443/902/488
f 452/900/489 448/903/491 446/904/491 444/901/490
f 439/894/486 425/888/481 424/905/492 440/906/493
f 423/892/484 439/891/483 440/907/494 422/908/494
f 425/888/481 430/887/480 431/909/495 424/905/492
f 437/910/496 429/644/497 428/911/498 438/912/496
f 427/913/499 437/914/499 438/915/499 426/916/499
f 429/644/497 434/917/500 435/918/500 428/911/498
f 434/917/500 436/919/374 456/920/374 435/918/500
f 430/887/480 432/921/501 453/922/495 431/909/495
f 448/903/491 455/923/412 447/924/412 446/904/491
f 433/886/479 454/925/479 432/921/501 430/887/480
f 419/926/502 454/927/502 433/928/503 388/929/503
f 360/930/504 429/931/505 437/779/506 365/778/506
f 371/932/507 422/933/507 440/771/401 380/770/400
f 404/711/365 445/710/364 451/934/508 393/935/508
f 420/936/509 455/937/509 448/867/468 407/866/468
f 388/929/503 433/928/503 450/872/471 386/871/470
f 357/938/510 427/939/510 426/940/510 397/941/510
f 417/942/105 447/943/105 455/944/105 420/945/105
f 403/946/511 438/947/512 428/819/439 400/818/438
f 402/821/440 435/820/440 456/948/513 421/949/513
f 397/950/514 426/951/514 438/947/512 403/946/511
f 421/686/515 456/952/515 436/953/515 416/954/515
f 393/955/516 451/956/516 442/957/516 342/958/516
f 356/829/446 444/828/445 446/882/476 369/881/476
f 362/876/473 434/875/473 429/931/505 360/930/504
f 415/880/475 432/879/475 454/959/517 419/960/517
f 342/961/518 442/962/518 443/827/518 366/826/518
f 375/773/403 424/772/402 431/783/408 377/782/408
f 2/963/519 5/964/520 502/965/521 500/966/521
f 502/967/522 5/968/523 11/969/524 498/970/522 499/971/522
f 498/972/525 11/973/526 8/974/527 501/975/525
f 501/976/528 8/977/528 2/978/528 500/979/528
f 8/974/527 11/973/526 18/980/529 19/981/530
f 15/982/531 14/983/532 21/984/533 510/985/533 509/986/533 508/987/533
f 5/964/520 2/963/519 14/983/532 15/982/531
f 8/974/527 19/981/530 33/988/534 29/989/535
f 11/969/524 5/968/523 15/990/536 18/991/536
f 510/992/537 21/993/538 25/994/538 507/995/537 506/996/537
f 14/997/539 19/998/539 25/994/538 21/993/538
f 18/999/540 15/1000/540 508/1001/540 505/1002/540 503/1003/540
f 507/1004/57 25/1005/57 19/981/530 18/980/529 503/1006/57 504/1007/57
f 29/989/535 33/988/534 41/1008/541 37/1009/542
f 19/998/543 14/997/543 31/1010/544 33/1011/544
f 2/1012/545 8/1013/545 29/1014/545 27/1015/545
f 14/983/532 2/963/519 27/1016/546 31/1017/547
f 39/1018/548 36/1019/549 44/1020/550 48/1021/551
f 27/1022/552 29/1023/552 37/1024/553 36/1025/554
f 31/1017/547 27/1016/546 36/1019/549 39/1018/548
f 33/1011/544 31/1010/544 39/1026/555 41/1027/555
f 49/1028/556 48/1029/556 54/1030/557 56/1031/557
f 41/1027/555 39/1026/555 48/1029/556 49/1028/556
f 37/1009/542 41/1008/541 49/1032/558 46/1033/57
f 36/1034/554 37/1035/553 46/1036/559 44/1037/560
f 51/1038/561 53/1039/561 56/1040/561 54/1041/561
f 46/1033/57 49/1032/558 56/1042/57 53/1043/57
f 44/1037/560 46/1036/559 53/1044/562 51/1045/562
f 48/1021/551 44/1020/550 51/1046/8 54/1047/8
